<?xml version="1.0" encoding="utf-8"?>
<!-- Generator: Adobe Illustrator 25.0.0, SVG Export Plug-In . SVG Version: 6.00 Build 0)  -->
<svg version="1.1" id="Layer_1" xmlns="http://www.w3.org/2000/svg" xmlns:xlink="http://www.w3.org/1999/xlink" x="0px" y="0px"
	 viewBox="0 0 1636.6 1123.7" style="enable-background:new 0 0 1636.6 1123.7;" xml:space="preserve">
<style type="text/css">
	.st0{fill:#F7F3EF;stroke:#070707;stroke-width:4;stroke-linecap:round;stroke-linejoin:round;}
	.st1{fill:none;stroke:#070707;stroke-width:4;stroke-linecap:round;stroke-linejoin:round;}
	.st2{fill:#FCBE9F;stroke:#070707;stroke-width:4;stroke-linecap:round;stroke-linejoin:round;}
	.st3{fill:#1C0E0C;}
	.st4{fill:#EFAF00;stroke:#000000;stroke-width:4;stroke-linecap:round;stroke-linejoin:round;}
	.st5{fill:#E57B07;stroke:#070707;stroke-width:4;stroke-linecap:round;stroke-linejoin:round;}
	.st6{fill:#070707;}
	.st7{fill:#EA631F;stroke:#070707;stroke-width:4;stroke-linecap:round;stroke-linejoin:round;}
</style>
<g>
	<g id="Chars">
		<g id="WOMAN">
			<g id="LEGS">
				<path id="PANTS" class="st0" d="M993.4,889.2c-7.7,113.9-25.8,199.7-24.1,218.5c0,0,35.8,141.2,19.8,297.2c0,0-63.3,6.6-90.2,0
					c0,0-2.6-17.5-7.7-43.7c-9.8-50.4-18.7-133.1-29.3-186.1c-3.5-17.6-17.6-85.9-31.2-159.7c-19.9,50.5-38.6,83.1-54.9,127.4
					c0,0,2.8,171.2-61.7,266.5l-101.9-6.4c0,0,28.9-135.8,42.3-254.4l86.2-507.8h153.9C894.6,640.8,1002.4,731,993.4,889.2z"/>
				<line id="SHADOW" class="st1" x1="829.9" y1="1021" x2="809.6" y2="870.2"/>
			</g>
			<path id="SHIRT" class="st0" d="M874.4,357c21.4,5.3,75.2,19.1,91,42.5c20.5,30.5,54.3,177.4,54.3,177.4l-58.9-17.4
				c0,0-37.8-68.4-40.3-68.4s-25.8,149.6-25.8,149.6H740.7l-12.8-75.6c0,0-32.7-26.6-30.6-42.9c2-16.3,2.7-21.1,2.7-21.1
				s-17.5,6.4-65.5,53.9l-56.2-24.6c0,0,86.8-122.8,111.8-137.5s54.6-17.8,54.6-17.8L874.4,357z"/>
			<g id="HEAD">
				<g id="NECK">
					<path class="st2" d="M800.3,255.5c0,0,19.2,77.5,83,104.5c0,0-46.6,32.3-144.6,20.3c0,0,34.8-39.5,28.2-83.5L800.3,255.5z"/>
					<path class="st3" d="M757.7,366c-2.7,0.1-5.3-0.4-7.7-1.6c9.5-15.5,21-40.8,17-67.7l32.2-39.9c1.3,1.8,2,2.9,2,2.9
						C805.7,273.8,808.3,363.8,757.7,366z"/>
				</g>
				<path id="HEAD-2" class="st2" d="M800.3,255.5c4.5,14-1.7,80.7-38.7,85.2c-27.8,3.4-58.6-52.4-62.6-65s0.9-42.5,30.6-51.5
					C769.5,212,800.3,255.5,800.3,255.5z"/>
				<g id="HAIR">
					<path class="st3" d="M714.3,240.7c0,0,27.5,23.3,86,14.8c0,0,17.1,78.8,83,104.5c0,0,42.6-48.2,13.9-81.4
						c-18.2-21-59-2.6-59-2.6s36.3-91.5-53.8-91.9s-109.5,95.3-82.4,98.8C702,283,688.7,255.5,714.3,240.7z"/>
					<path class="st1" d="M901.5,270.4c-31.2-23.7-65,6-65,6"/>
					<path class="st1" d="M713.4,239.9c0,0,15.3,34.5,73.9,25.9"/>
				</g>
				<path id="SHAWL" class="st4" d="M690.9,263.5c0,0-9-33.6,0.5-49.4s52.1-47.4,82.5-49.6s96.6,34.6,96.6,34.6s-55.5,2.8-65.5,71.2
					c0,0-25.3-57.1-70.4-47.4S690.9,263.5,690.9,263.5z"/>
			</g>
			<path id="APRON" class="st4" d="M857.1,347.1c0,0-19.4,53.9-21.4,93.3c0,0-68.1,9.6-83.8,1c-9.8-5.4,2.7-79.9,2.7-79.9
				l-23.5,16.1c0,0-28.5,102.4-31.1,123.5c-2.7,21.2-10.8,33.9,28,64l12.8,75.6l-41.6,212.8c0,0,159.6,11.4,216.3-3.4
				s-20.7-209.4-20.7-209.4l11.5-71.9c0,0-64.8-60.3-31.7-211.8L857.1,347.1z"/>
			<g id="HANDS">
				<g id="RIGHT_HAND">
					<path class="st0" d="M961.2,593.8c-4.5-1.8-17.9-43,14.4-51.9c42.4-11.6,50.9,10.3,49.7,28.5
						C1023.2,605.3,1001,610.1,961.2,593.8z"/>
					<path class="st0" d="M801.8,633.4l-0.5-0.2c-1.7-0.9-2.4-3-1.5-4.7c0,0,0,0,0,0l26.7-57.9c0.9-1.7,3-2.4,4.7-1.5l6.1,3.2
						c1.7,0.9,2.4,3,1.5,4.7c0,0,0,0,0,0l-32.3,55C805.7,633.6,803.5,634.3,801.8,633.4z"/>
					
						<rect x="725.2" y="676.6" transform="matrix(0.4638 -0.886 0.886 0.4638 -184.3877 1053.042)" class="st0" width="105.1" height="4.5"/>
					<path class="st0" d="M759.6,750.4c-6.3,12.1-21.6,23.6-29.5,19.5s-7.1-23.3-0.8-35.3s16.6-13.6,24.3-9.6
						S765.9,738.3,759.6,750.4z"/>
					<path class="st2" d="M995.7,602.9c-37.6,22.5-114.8,55.5-158.4,65.2c-5.3,11.9-23.1,30.4-27.5,31.3c-5.1,1.1-7-1.4-12-3.3
						c-8.6-3.2-4.5-9.3-10.1-10.4s-6.9-9.6-6.9-9.6s-5.3,0.7-8.5,9.5c-4,11-9.8,8.4-9.8,8.4s3-17.8,5.5-21.1
						c4.1-5.4,8.8-10.4,14-14.9c3.2-2.7,30.6-7.8,44.2-7.7c34.1-29.2,92.1-72.1,130.4-88C984,550.9,1029.6,582.7,995.7,602.9z"/>
				</g>
				<g id="LEFT_HAND">
					<path class="st0" d="M564.3,585c-4.5-1.8-17.7-46.3,14.4-55.7s55.4,12.6,56.7,30.8C636,568.6,604.1,601.3,564.3,585z"/>
					<path class="st2" d="M596.6,618.2c-5.1-2-56.8-33.9-25.3-58.7c41.2-32.5,55.9,25.9,55.9,25.9L596.6,618.2z"/>
					<path class="st0" d="M646.7,595.5l-0.5,0.2c-1.8,0.8-3.8-0.1-4.6-1.8c0,0,0,0,0,0l-27.8-57.4c-0.8-1.8,0.1-3.8,1.8-4.6
						c0,0,0,0,0,0l6.3-2.7c1.8-0.8,3.8,0.1,4.6,1.9l22,59.9C649.4,592.7,648.5,594.7,646.7,595.5
						C646.7,595.5,646.7,595.5,646.7,595.5z"/>
					
						<rect x="664.2" y="590.4" transform="matrix(0.9206 -0.3906 0.3906 0.9206 -198.1853 311.3876)" class="st0" width="4.5" height="105.1"/>
					<path class="st0" d="M710.3,702.3c5.3,12.5,4.5,31.7-3.7,35.2s-22.5-9.3-27.8-21.8s0-21.4,8-24.9
						C695.1,687.4,705,689.8,710.3,702.3z"/>
					<path class="st2" d="M623.6,585.6c2.7-1.8,9.5-4.9,19.1,3.7s35.5,37.6,31.9,41.2c-7,7-20.9-16.5-23.7-13.9
						c-0.8,0.8-0.5,2.6-0.7,4.5s-1.2,3.9-4.4,5.1c-4.3,1.5,0,7.1-6.1,10.4s-3.1,5-7.5,10.2c-5,5.9-32.9-11.5-37.3-20.8
						S611.9,593.2,623.6,585.6z"/>
				</g>
			</g>
		</g>
		<path class="st1" d="M714,290.8c0,0,9.3,5.1,13.1-5.1"/>
		<path class="st1" d="M745.6,278.8c0,0,10.4,6.2,18-5.8"/>
		<polyline class="st1" points="734.6,284.2 734.6,300.5 742,305.6 		"/>
		<path class="st1" d="M748.1,315.8c0,0,10.3-3.2,11.8-10.9"/>
		<line class="st1" x1="748.5" y1="459.2" x2="834.2" y2="459.2"/>
		<line class="st1" x1="752.2" y1="602.8" x2="794.8" y2="602.8"/>
		<ellipse transform="matrix(0.672 -0.7406 0.7406 0.672 67.7997 708.7773)" class="st5" cx="834" cy="277.9" rx="25.3" ry="9.6"/>
		<g id="TABLE">
			<polyline class="st0" points="1434.9,1123.7 1384.9,894 1426.2,889 1464.6,1123.7 			"/>
			<polygon class="st3" points="1384.9,894 1426.2,889 1430.2,913.7 1387.8,907.4 			"/>
			<polyline class="st0" points="178.4,1123.7 228.4,894 187.2,889 148.7,1123.7 			"/>
			<polygon class="st6" points="187.2,889 228.4,894 222.5,921.2 185.5,899.4 			"/>
			<ellipse class="st0" cx="806.2" cy="837.7" rx="699.5" ry="51.5"/>
			<path class="st0" d="M1505.7,837.7V865c0,28.5-313.2,51.5-699.5,51.5c-337.9,0-619.8-17.6-685.2-41.1
				c-9.4-3.3-14.4-6.8-14.4-10.4v-27.3c0,3.6,4.9,7.1,14.3,10.4c3,1.1,6.6,2.2,10.5,3.2c81.3,21.8,352.5,37.8,674.6,37.8
				s593.3-16,674.6-37.8C1497,847,1505.7,842.4,1505.7,837.7z"/>
			<path class="st0" d="M1087,884.8c-20.2,130.1-242.2,207.4-404.8,192.1c-199.6-18.8-306.7-115.1-351.1-167.7
				c-7.9-9.4-9.7-22.5-4.5-33.6c124.7,8.5,291.6,13.7,474.9,13.7C903.2,889.2,999.8,887.6,1087,884.8z"/>
			<path class="st0" d="M1294.6,800.1l-2.3,0.9L1087,884.6v0.2c-87.2,2.9-183.8,4.5-285.5,4.5c-183.3,0-350.2-5.2-474.9-13.7
				c3.4-7.3,9.4-13,16.9-16L515,790.8c0,0,4.4-0.2,12.6-0.6l0,0C597.7,787.3,947.5,774.6,1294.6,800.1z"/>
		</g>
		<g id="LEMON">
			<path class="st0" d="M469.7,854.7c7.3,6.3,15.7,9.8,24.4,7.1l7.9-2.4c5.5-1.7,9.3-5,12.6-9.3c3.1-4.1,3.8-11.6,2.2-17
				c-3.3-11.1-16.4-17-27.5-13.6l-6.1,1.9c-8.1,2.5-12.2,6.2-14.7,11c-1.3,2.4-2.1,6.1-3.7,8.4c-1.5,2-3.9,3.4-3.1,7.2
				S465.1,850.8,469.7,854.7z"/>
			<path class="st0" d="M595.2,801.8c1.1,0,2,0.9,2,2c0,0,0,0.1,0,0.1c-1,16.8-14.3,30-30.5,30s-29.5-13.3-30.5-30
				c-0.1-1.1,0.8-2.1,1.9-2.1c0,0,0.1,0,0.1,0H595.2z"/>
			<path class="st0" d="M595.7,801.8c0,16-13,24.7-28.9,24.7s-28.9-8.7-28.9-24.7H595.7z"/>
			<path class="st0" d="M572.2,819.3c0.2,0.5-0.1,1.1-0.7,1.3c0,0-0.1,0-0.1,0c-3.1,0.4-6.3,0.4-9.5,0c-0.5-0.1-0.9-0.6-0.8-1.2
				c0,0,0-0.1,0-0.1l4.6-12.3c0.2-0.5,0.7-0.7,1.2-0.6c0.3,0.1,0.5,0.3,0.6,0.6L572.2,819.3z"/>
			<path class="st0" d="M590.3,802.4c-0.2,2.4-0.7,4.7-1.7,6.9c-0.1,0.3-0.5,0.4-0.8,0.3l-13.1-6.7c-0.2-0.2-0.3-0.5-0.1-0.8
				c0.1-0.1,0.2-0.2,0.4-0.2h14.8C590,801.8,590.3,802.1,590.3,802.4z"/>
			<path class="st0" d="M558.2,803.1l-12.4,6.3c-0.3,0.2-0.8,0.1-1-0.3c0,0,0-0.1,0-0.1c-0.9-2.1-1.5-4.3-1.7-6.6
				c0-0.4,0.3-0.7,0.6-0.7c0,0,0,0,0.1,0h14c0.4,0,0.7,0.2,0.8,0.6C558.6,802.7,558.5,803,558.2,803.1z"/>
			<path class="st0" d="M585.7,813.5c-2.4,2.7-5.5,4.7-9,5.8c-0.5,0.2-1-0.1-1.2-0.5l-5-12.7c-0.2-0.5,0-1,0.5-1.2
				c0.3-0.1,0.5-0.1,0.8,0l13.7,7.1c0.4,0.3,0.6,0.8,0.3,1.3C585.8,813.4,585.8,813.4,585.7,813.5z"/>
			<path class="st0" d="M562.3,806.2l-4.8,12.3c-0.2,0.5-0.8,0.7-1.3,0.6c-3.3-1.2-6.3-3.2-8.6-5.8c-0.3-0.4-0.3-1.1,0.1-1.4
				c0,0,0.1-0.1,0.2-0.1l13-6.8c0.5-0.2,1.1,0,1.3,0.5C562.4,805.7,562.4,806,562.3,806.2z"/>
		</g>
		<g id="GROCERY_BAG">
			<g id="BAGUETTE">
				<path class="st0" d="M1387.4,645L1387.4,645c-8,30.2-32.4,114.5-55.3,112.7c-27.9-2.2,6.6-128.5,6.6-128.5
					s27.8-111.2,55.8-110.2S1387.4,645,1387.4,645z"/>
				
					<ellipse transform="matrix(4.361939e-02 -0.999 0.999 4.361939e-02 585.7269 2013.3296)" class="st0" cx="1344.4" cy="700.7" rx="3.3" ry="10.1"/>
				<ellipse class="st0" cx="1384.4" cy="561.5" rx="10.1" ry="3.3"/>
				<ellipse class="st0" cx="1377.3" cy="589.7" rx="13.4" ry="4.4"/>
				<ellipse class="st0" cx="1365.8" cy="618.7" rx="15.1" ry="5"/>
				
					<ellipse transform="matrix(4.361939e-02 -0.999 0.999 4.361939e-02 619.4246 1996.0557)" class="st0" cx="1352.3" cy="674.5" rx="4.4" ry="13.4"/>
				
					<ellipse transform="matrix(4.361939e-02 -0.999 0.999 4.361939e-02 646.3301 1978.3301)" class="st0" cx="1356.5" cy="651.6" rx="5" ry="15.1"/>
			</g>
			<g id="RED_PEPPER">
				<path class="st0" d="M1237.7,618.2c0,0,5.6-7.4-2.9-15.1l2.9-1.1c4.5,2.8,7.6,7.5,8.4,12.7L1237.7,618.2z"/>
				<path class="st4" d="M1248.8,682.3L1248.8,682.3c-7.2,2.6-15.1-0.6-18.5-7.4l-16.9-30.6c-3.9-8,1.6-18.1,9.9-21.2l0.2-0.1
					c7.7-2.8,16.3,1.2,19.1,8.9c0,0,0,0,0,0l15.1,31.2C1260.5,670.9,1256.5,679.4,1248.8,682.3z"/>
				<path class="st4" d="M1278.1,671.6L1278.1,671.6c7.2-2.6,11.2-10.2,9.4-17.6l-6.4-34.4c-2.1-8.6-13.2-12.8-21.5-9.7l-0.2,0.1
					c-7.7,2.8-11.7,11.4-8.9,19.1c0,0,0,0,0,0l8.6,33.6C1261.8,670.4,1270.4,674.4,1278.1,671.6z"/>
				<path class="st4" d="M1264.5,678.8L1264.5,678.8c-6.5,2.4-13.8-1-16.1-7.5c0,0,0,0,0,0l-14.5-39.8c-2.4-6.5,1-13.8,7.5-16.2l0,0
					c6.5-2.4,13.8,1,16.2,7.5c0,0,0,0,0,0l14.5,39.8C1274.4,669.2,1271,676.5,1264.5,678.8z"/>
			</g>
			<g id="PARSLEY">
				<path class="st0" d="M1197,646.6c0,0-22.5-42.4-88.7-7.7"/>
				<path class="st0" d="M1137.9,627.4c0,0-13.7,3.6-13.7,7.1s6.8,1.6,6.8,1.6s-9.9,4.9-9.6,8.1s7.3,0,7.3,0s-4.8,9.9-1,11
					s3.9-6.6,3.9-6.6s4.8,3.8,6.1,2.4s-3.2-10.7-3.2-10.7s4.4,5.8,7.2,3.8S1136.7,633.1,1137.9,627.4z"/>
				<path class="st0" d="M1114.3,636c0,0-12.5-3.4-14.4,0s4.1,1.9,4.1,1.9s-11.4,5.2-10.5,8.8s6.9,0,6.9,0s-1,8.5,3.4,6.9
					S1107.5,640.3,1114.3,636z"/>
				<path class="st0" d="M1183.1,602.5c0,0,10-4.8,9.7-7.8s-3.7,1.1-3.7,1.1s5.2-9.3,2.8-11s-4.7,3.8-4.7,3.8s-3.4-5.7-5.6-2.3
					S1185.5,596.1,1183.1,602.5z"/>
				<path class="st1" d="M1200.7,646.6c0,0-11-41.3-59.2-38.8"/>
				<path class="st0" d="M1144.1,607.3c0,0-5.4,14.1-10.8,11.3s2.3-5.3,2.3-5.3s-15.9,4-15.2-1.7s11.9-3.4,11.9-3.4s-6-3.4,0-4.8
					S1144.1,607.3,1144.1,607.3z"/>
				<path class="st0" d="M1171.1,612.8c0,0-1.7-13.8-7.4-13.8s1.2,8.7,1.2,8.7s-6.9-5.7-8.1-1.8s7,5.9,7,5.9s-5.3,6.7-1.3,6.3
					S1171.1,612.8,1171.1,612.8z"/>
				<path class="st0" d="M1170.3,627.3c0,0-13.2-4.2-15.6,1s8.4,2.5,8.4,2.5s-8.1,3.9-5,6.7s8.2-3.9,8.2-3.9s3.9,7.6,5.2,3.8
					S1170.3,627.3,1170.3,627.3z"/>
				<path class="st0" d="M1180.1,613.8c0,0,11-6.3,9-9.3s-8.7,4.8-8.7,4.8s-2.3-8.7-5.1-7.3S1180.1,613.8,1180.1,613.8z"/>
				<path class="st1" d="M1189.4,646.1c0,0-17.8-34.6-3.7-47.6"/>
			</g>
			<g id="ONION">
				<path class="st0" d="M1277.3,551c0,0,15.2,26.8,9.8,134.9l10.7,0.3C1297.9,686.3,1301.4,584.5,1277.3,551z"/>
				<path class="st0" d="M1287.1,685.9c0,0,20.6-139.1,6-173.4c0,0,22.6,34.4,4.7,173.8L1287.1,685.9z"/>
				<path class="st0" d="M1287.1,685.9c6.2-50,50.5-115,50.5-115s-35.4,78.7-39.7,115.3L1287.1,685.9z"/>
				<path class="st0" d="M1282.5,725.5c0,0,3.3-19.1,4.6-39.6c0,0,5.7-4.7,10.7,0.3c-1,14.2-0.9,28.5,0.5,42.7L1282.5,725.5z"/>
				
					<ellipse transform="matrix(0.2748 -0.9615 0.9615 0.2748 235.9471 1768.6111)" class="st0" cx="1290.4" cy="727.9" rx="4.8" ry="8.2"/>
				<path class="st0" d="M1296.7,729.6L1296.7,729.6c-0.4,1.2-1.4,2-2.6,2.2c-1.5,0.3-3,0.3-4.5-0.2c-3.3-1-5.5-3.3-5-5.4v-0.1
					c0.4-1.1,1.4-2,2.6-2.2c1.5-0.3,3-0.3,4.5,0.2C1295,725.1,1297.2,727.5,1296.7,729.6z M1285.5,726.4c-0.4,1.5,1.6,3.5,4.3,4.3
					c1.3,0.4,2.7,0.5,4,0.2c0.9-0.1,1.7-0.7,2-1.5l0,0c0.4-1.5-1.6-3.5-4.3-4.3c-1.3-0.4-2.7-0.5-4-0.2
					C1286.6,725,1285.8,725.6,1285.5,726.4L1285.5,726.4z"/>
				<path class="st0" d="M1293.4,728.7L1293.4,728.7c-0.3,1-1.8,1.5-3.4,1s-2.6-1.6-2.3-2.7l0,0c0.3-1,1.8-1.5,3.4-1l0,0
					C1292.6,726.4,1293.7,727.6,1293.4,728.7z M1288.5,727.3c-0.1,0.5,0.6,1.2,1.7,1.5s2.1,0,2.3-0.4l0,0c0.1-0.5-0.6-1.2-1.7-1.5
					l0,0C1289.6,726.6,1288.6,726.8,1288.5,727.3L1288.5,727.3z"/>
			</g>
			<g id="PACK">
				<polygon class="st0" points="1404.4,646.1 1377.8,848.5 1366.1,848.5 1335.7,646.1 				"/>
				<polygon class="st0" points="1411.9,652.7 1385.8,849.5 1374.1,849.5 1344.2,652.7 				"/>
				<polygon class="st0" points="1405.2,646.1 1378.6,848.5 1366.8,848.5 1336.5,646.1 				"/>
				<polygon class="st0" points="1366.8,848.5 1201.6,848.5 1175,646.1 1336.5,646.1 				"/>
			</g>
		</g>
		<g id="YELLOW_PEPPER">
			<path class="st0" d="M1110.9,745.6c0,0,7.1-4.6,2.3-14h2.9c3,4,4.1,9.2,3.2,14.1L1110.9,745.6z"/>
			<path class="st7" d="M1099.5,804.4L1099.5,804.4c-7-0.1-12.9-5.4-13.5-12.4l-4.7-31.9c-0.8-8.1,7.2-15.1,15.4-15h0.2
				c7.6,0.1,13.7,6.3,13.6,13.9l2.8,31.8C1113.3,798.5,1107.1,804.5,1099.5,804.4z"/>
			<path class="st7" d="M1128.2,804.8L1128.2,804.8c7,0.1,13-5.2,13.8-12.1l5.7-31.8c1-8.1-7.2-15.3-15.4-15.4h-0.2
				c-7.6-0.1-13.8,6-13.9,13.6l-3.5,31.8C1114.6,798.5,1120.7,804.7,1128.2,804.8z"/>
			<path class="st7" d="M1114.1,806.6L1114.1,806.6c-6.4-0.1-11.6-5.3-11.5-11.8l0.4-39c0.1-6.4,5.3-11.6,11.8-11.5l0,0
				c6.4,0.1,11.6,5.3,11.5,11.8l-0.4,39C1125.8,801.5,1120.5,806.7,1114.1,806.6C1114.1,806.6,1114.1,806.6,1114.1,806.6z"/>
		</g>
		<g id="SALAD">
			<g id="BOWL">
				<path class="st0" d="M845.3,702.9c0,65.4-53,118.5-118.5,118.5l0,0c-65.4,0-118.5-53-118.5-118.5H845.3z"/>
				<path class="st0" d="M844.9,702.6c0,65.4-53,118.5-118.5,118.5l0,0c-65.4,0-118.5-53-118.5-118.5H844.9z"/>
			</g>
			<g id="SALAD-2">
				
					<ellipse transform="matrix(0.9459 -0.3246 0.3246 0.9459 -216.6337 283.7617)" class="st0" cx="742.3" cy="791.2" rx="20.2" ry="15.1"/>
				
					<ellipse transform="matrix(0.9302 -0.367 0.367 0.9302 -239.0078 326.9811)" class="st0" cx="740.4" cy="792" rx="17.9" ry="13.6"/>
				<path class="st0" d="M743.8,787.3c-0.2,1-3.2,3.7-3.2,3.7s-1.7-2.7-1.5-3.7c0.4-1.1,1.5-1.8,2.7-1.8
					C743.2,785.5,744,786.3,743.8,787.3z"/>
				<path class="st0" d="M737,796.7c0.2-1,3.2-3.7,3.2-3.7s1.7,2.7,1.5,3.7c-0.4,1.1-1.5,1.8-2.7,1.8
					C737.7,798.5,736.8,797.7,737,796.7z"/>
				<path class="st0" d="M734.7,790.2c1.3,0,4.3,1.8,4.3,1.8s-3.9,1.8-5.2,1.8s-2.1-0.8-1.9-1.8
					C732.4,790.9,733.5,790.1,734.7,790.2z"/>
				<path class="st0" d="M746.1,793.8c-1.3,0-4.3-1.8-4.3-1.8s3.9-1.8,5.2-1.8s2.1,0.8,1.9,1.8C748.4,793.1,747.3,793.8,746.1,793.8
					z"/>
				<circle class="st0" cx="711.2" cy="785" r="7.5"/>
				<circle class="st0" cx="771.3" cy="771.8" r="9"/>
				<circle class="st0" cx="647.2" cy="766.2" r="9"/>
				
					<ellipse transform="matrix(0.9505 -0.3107 0.3107 0.9505 -209.4397 246.7746)" class="st0" cx="669.9" cy="780.8" rx="7.7" ry="19.3"/>
				<path class="st0" d="M668.7,766.3c3.2-0.3,7.7,6.7,9.5,15.8c1.5,7.1,1.4,13.5-2.6,13.8c-2.2,0.2-5.5-4.7-8-13.7
					S664.8,766.6,668.7,766.3z"/>
				
					<ellipse transform="matrix(0.4772 -0.8788 0.8788 0.4772 -267.4382 1017.5002)" class="st0" cx="721.4" cy="733.5" rx="19.3" ry="5.2"/>
				<path class="st0" d="M712.7,744.9c-1.5-1.7,1.2-9.4,6.2-17.2c3.9-6,8-10.7,9.9-8.6c1,1.1-0.8,6.7-5.5,14.7
					S714.5,747,712.7,744.9z"/>
				<path class="st0" d="M760.3,757.9c8.8-3.8,21.4-5.5,36.6,2.8"/>
				<path class="st0" d="M795.4,759.5c0,0-0.8,10.8,3.5,10.7s0.2-4.1,0.2-4.1s9,7.5,10.4,3.6s-6.6-5.9-6.6-5.9s4.9-0.3,1.5-3.1
					S795.4,759.5,795.4,759.5z"/>
				<path class="st0" d="M776.2,754.8c0,0,5.3-8.4,9-6.6s-3.4,5.2-3.4,5.2s6.2-1.6,5.8,1.4s-6.3,1.7-6.3,1.7s1.4,6-1.1,4.5
					S776.2,754.8,776.2,754.8z"/>
				<path class="st0" d="M687.5,789.3c1.7,7.8,8.3,19.5,32.3,24.6"/>
				<path class="st0" d="M704.3,808.7c0,0,6.6,3.1,7.8,1.7s-2.2-2.9-2.2-2.9s5.5,1.3,6.5-0.1s-2.9-2.4-2.9-2.4s5.1-2.4,4-4
					s-3.7,1.3-3.7,1.3s-0.7-3.1-1.6-3s-2.2,5.3-2.2,5.3s0.2-3.8-1.6-3.8S706.7,806.8,704.3,808.7z"/>
				<path class="st0" d="M716.5,813c0,0,3.8,5.4,5.7,4.7s-1-2.1-1-2.1s6.2,1.7,7,0s-2.8-2.3-2.8-2.3s3.2-3,0.9-3.8
					S720.7,813.6,716.5,813z"/>
				<path class="st0" d="M691.5,798.1c0,0,3.9,6,6.5,4.7s-2.5-3.8-2.5-3.8s4.5,1.1,4.2-1s-4.5-1.2-4.5-1.2s1-4.3-0.8-3.2
					S691.5,798.1,691.5,798.1z"/>
				<path class="st0" d="M757.5,806.6c7.7,2.1,21.1,1.5,36.6-17.5"/>
				<path class="st0" d="M782.5,800.5c0,0,5.7-4.5,5-6.1s-3.6,0.6-3.6,0.6s3.7-4.3,2.9-5.8s-3.5,1.5-3.5,1.5s0.2-5.7-1.8-5.4
					s-0.5,3.9-0.5,3.9s-3-0.8-3.4,0.1c-0.4,0.9,3.7,4.4,3.7,4.4s-3.3-1.9-4.2-0.3S781.9,797.6,782.5,800.5z"/>
				<path class="st0" d="M791.9,791.7c0,0,6.6-0.9,6.8-2.9s-2.3-0.1-2.3-0.1s4.4-4.8,3.2-6.3s-3.3,1.4-3.3,1.4s-1.2-4.2-3-2.6
					S794.3,788.2,791.9,791.7z"/>
				<path class="st0" d="M767.2,807.1c0,0,7.1-0.7,7.2-3.6s-4.5,0.5-4.5,0.5s3-3.5,1-4.2s-3.1,3.5-3.1,3.5s-3.4-2.8-3.3-0.8
					S767.2,807.1,767.2,807.1z"/>
				<path class="st0" d="M691.2,758.5c0,0,7.2-8.5,5.6-11.1s-2.9,2.5-2.9,2.5s0.8-10.6-2-11.2s-2.8,7.1-2.8,7.1s-5.3-5.2-5.9-1.2
					S688,754,691.2,758.5z"/>
				<path class="st0" d="M693.2,770c0,0,7.4-10.2,4.3-12.2s-6,8-6,8s-5.7-7-7.7-4.6S693.2,770,693.2,770z"/>
				<path class="st0" d="M697.1,776.5c-4.9-7.3-8.1-15.5-5.1-22.7"/>
			</g>
		</g>
		<g id="CUTTING_BOARD">
			<g id="CUTTING_BOARD-2">
				<path class="st0" d="M1110.3,816.7c0,1.1-0.7,2.2-1.8,2.6l-6.5,2.7l-60.7,24.7c-3.2,1.3-6.6,2-10.1,2H793
					c-1.5,0-2.8-1.2-2.8-2.7c0,0,0-0.1,0-0.1c0-1.1,0.7-2.2,1.8-2.6l67.2-27.4c3.2-1.3,6.6-2,10.1-2h238.2c1.5,0,2.8,1.2,2.8,2.7
					C1110.3,816.6,1110.3,816.7,1110.3,816.7z"/>
				<path class="st0" d="M1110.3,816.7v8.1c0,1.1-0.7,2.2-1.8,2.6l-67.2,27.3c-3.2,1.3-6.6,2-10.1,2H793c-1.5,0-2.8-1.2-2.8-2.7
					c0,0,0-0.1,0-0.1v-8.1c0,1.5,1.2,2.8,2.7,2.8c0,0,0.1,0,0.1,0h238.2c3.5,0,6.9-0.7,10.1-2L1102,822l6.5-2.7
					C1109.6,818.9,1110.3,817.9,1110.3,816.7z"/>
			</g>
			<g id="KNIFE">
				<path class="st0" d="M922.7,820.3l50.2-14.1c1.3-0.4,2-1.7,1.7-2.9c0,0,0,0,0-0.1l-2.1-7c-0.4-1.3-1.7-2-2.9-1.7c0,0,0,0,0,0
					l-50.2,14.1c-1.3,0.4-2,1.7-1.7,3c0,0,0,0,0,0l2.1,7C920.1,819.9,921.4,820.6,922.7,820.3L922.7,820.3z"/>
				<path class="st0" d="M842,831.7l75.4-21.2l5.1,18C922.5,828.5,873.3,850.4,842,831.7z"/>
			</g>
			<g id="TOMATO">
				<ellipse class="st0" cx="1037.2" cy="809.6" rx="24.2" ry="22.1"/>
				<ellipse class="st0" cx="1032.7" cy="811.2" rx="19" ry="19.4"/>
				<path class="st0" d="M1035.2,804.8c0,1.3-2.6,5-2.6,5s-2.6-3.7-2.6-5c0.1-1.4,1.3-2.5,2.7-2.4
					C1034.1,802.4,1035.2,803.5,1035.2,804.8z"/>
				<path class="st0" d="M1030.1,817.6c0-1.3,2.6-5,2.6-5s2.6,3.7,2.6,5c-0.1,1.4-1.3,2.5-2.7,2.4
					C1031.2,819.9,1030.2,818.9,1030.1,817.6z"/>
				<path class="st0" d="M1025.9,808.7c1.4,0,5.3,2.4,5.3,2.4s-3.8,2.4-5.3,2.4c-1.4,0-2.4-1.1-2.4-2.5
					C1023.5,809.8,1024.6,808.7,1025.9,808.7L1025.9,808.7z"/>
				<path class="st0" d="M1039.4,813.6c-1.4,0-5.3-2.4-5.3-2.4s3.8-2.4,5.3-2.4c1.4,0,2.4,1.1,2.4,2.4
					C1041.9,812.5,1040.8,813.6,1039.4,813.6L1039.4,813.6z"/>
				
					<ellipse transform="matrix(0.8552 -0.5183 0.5183 0.8552 -274.6572 641.6364)" class="st0" cx="1010.9" cy="812.3" rx="22.2" ry="18.1"/>
				
					<ellipse transform="matrix(0.8113 -0.5847 0.5847 0.8113 -284.9918 743.3987)" class="st0" cx="1009" cy="813.1" rx="19.8" ry="16.2"/>
				<path class="st0" d="M1012.6,807.4c-0.2,1.2-3.4,4.5-3.4,4.5s-1.8-3.3-1.6-4.5c0.4-1.3,1.6-2.2,2.9-2.2c1-0.1,1.9,0.6,2.1,1.7
					C1012.7,807.1,1012.7,807.3,1012.6,807.4z"/>
				<path class="st0" d="M1005.4,819c0.2-1.2,3.4-4.5,3.4-4.5s1.8,3.3,1.6,4.5c-0.4,1.3-1.6,2.2-2.9,2.2c-1,0.1-1.9-0.6-2.1-1.7
					C1005.3,819.4,1005.3,819.2,1005.4,819z"/>
				<path class="st0" d="M1002.9,811c1.4,0,4.6,2.2,4.6,2.2s-4.1,2.2-5.5,2.2c-1,0.1-1.9-0.7-2-1.7c0-0.2,0-0.3,0-0.5
					C1000.4,811.9,1001.6,811,1002.9,811z"/>
				<path class="st0" d="M1015.1,815.4c-1.4,0-4.6-2.2-4.6-2.2s4.1-2.2,5.5-2.2c1-0.1,1.9,0.7,2,1.7c0,0.2,0,0.3,0,0.5
					C1017.6,814.5,1016.4,815.4,1015.1,815.4z"/>
				
					<ellipse transform="matrix(0.9459 -0.3246 0.3246 0.9459 -210.865 367.5749)" class="st0" cx="996.4" cy="815.9" rx="20.2" ry="15.1"/>
				
					<ellipse transform="matrix(0.9302 -0.367 0.367 0.9302 -230.3223 421.9557)" class="st0" cx="994.5" cy="816.7" rx="17.9" ry="13.6"/>
				<path class="st0" d="M997.9,811.9c-0.2,1-3.2,3.7-3.2,3.7s-1.7-2.7-1.5-3.7c0.4-1.1,1.5-1.9,2.7-1.8
					C997.3,810.1,998.1,810.9,997.9,811.9z"/>
				<path class="st0" d="M991.1,821.3c0.2-1,3.2-3.7,3.2-3.7s1.7,2.7,1.5,3.7c-0.4,1.1-1.5,1.8-2.7,1.8
					C991.8,823.1,990.9,822.3,991.1,821.3z"/>
				<path class="st0" d="M988.9,814.8c1.3,0,4.3,1.8,4.3,1.8s-3.9,1.8-5.2,1.8s-2.1-0.8-1.9-1.8
					C986.6,815.5,987.7,814.8,988.9,814.8z"/>
				<path class="st0" d="M1000.2,818.4c-1.3,0-4.3-1.8-4.3-1.8s3.9-1.8,5.2-1.8s2.1,0.8,1.9,1.8
					C1002.5,817.7,1001.4,818.5,1000.2,818.4z"/>
			</g>
		</g>
		<g id="OIL">
			<path class="st0" d="M480.1,588.7h14.4c2.6,0,4.7,2.1,4.7,4.6v0v30.8l0,0h-23.7l0,0v-30.8C475.5,590.8,477.6,588.7,480.1,588.7z"
				/>
			<path class="st3" d="M492.5,624.2h5.6c14.9,0,26.9,12,26.9,26.9l0,0v150.6c0,4.4-3.6,8-8,8h-43.4c-4.4,0-8-3.6-8-8V651.1
				C465.6,636.3,477.6,624.3,492.5,624.2z"/>
			<path class="st0" d="M477.5,624.2h5.6c14.9,0,26.9,12,26.9,26.9l0,0v150.6c0,4.4-3.6,8-8,8h-43.3c-4.4,0-8-3.6-8-8V651.1
				C450.7,636.3,462.7,624.3,477.5,624.2z"/>
			<path class="st3" d="M521.4,653.6v143.7c0,6-3.3,9.3-8.8,9.3h-49c-5.5,0-8.8-3.7-8.8-9.7V653.6H521.4z"/>
			<path class="st0" d="M462.9,697.9h34.6c3,0,5.5,2.4,5.5,5.5v22.7c0,3-2.4,5.5-5.5,5.5h-34.6c-3,0-5.5-2.4-5.5-5.5v-22.7
				C457.5,700.4,459.9,697.9,462.9,697.9z"/>
			<path class="st0" d="M477.5,624.2h5.6c14.9,0,26.9,12,26.9,26.9l0,0v150.6c0,4.4-3.6,8-8,8h-43.3c-4.4,0-8-3.6-8-8V651.1
				C450.7,636.3,462.7,624.3,477.5,624.2z"/>
		</g>
		<g id="SALT_PEPPER">
			<g id="SALT">
				<circle class="st0" cx="258.8" cy="762.9" r="16.7"/>
				<circle class="st0" cx="256.2" cy="760.1" r="17.2"/>
				<path class="st0" d="M254.2,774.1h16.5c7.7,0,14,6.3,14,14v32.8c0,2.4-1.9,4.3-4.3,4.3c0,0,0,0,0,0h-36c-2.4,0-4.3-1.9-4.3-4.3
					l0,0v-32.7c0-7.7,6.2-14,13.9-14.1C254.2,774.1,254.2,774.1,254.2,774.1z"/>
				<path class="st3" d="M253.8,774.1h16.5c7.7,0,14,6.3,14,14v32.8c0,2.4-1.9,4.3-4.3,4.3c0,0,0,0,0,0h-36.1
					c-2.4,0-4.3-1.9-4.3-4.3l0,0v-32.7c0-7.7,6.2-14,13.9-14.1C253.8,774.1,253.8,774.1,253.8,774.1z"/>
				<path class="st0" d="M241.9,774.1h16.5c7.7,0,14,6.3,14,14v32.8c0,2.4-1.9,4.3-4.3,4.3c0,0,0,0,0,0h-36.1
					c-2.4,0-4.3-1.9-4.3-4.3l0,0v-32.7c0-7.7,6.2-14,13.9-14.1C241.8,774.1,241.9,774.1,241.9,774.1z"/>
				<path class="st0" d="M241.7,792.7h21.8c1.9,0,3.4,1.5,3.4,3.4v11c0,1.9-1.5,3.4-3.4,3.4h-21.8c-1.9,0-3.4-1.5-3.4-3.4v-11
					C238.3,794.2,239.9,792.7,241.7,792.7z"/>
				<path class="st0" d="M239.1,790.4h21.8c1.9,0,3.4,1.5,3.4,3.4v11c0,1.9-1.5,3.4-3.4,3.4h-21.8c-1.9,0-3.4-1.5-3.4-3.4v-11
					C235.6,791.9,237.2,790.4,239.1,790.4z"/>
			</g>
			<g id="PEPPER">
				<circle class="st0" cx="335.8" cy="747.9" r="16.7"/>
				<circle class="st0" cx="333.4" cy="744.6" r="17.2"/>
				<path class="st0" d="M331.1,758.7h16.5c7.7,0,14,6.3,14,14v32.8c0,2.4-1.9,4.3-4.3,4.3l0,0h-36c-2.4,0-4.3-1.9-4.3-4.3l0,0
					v-32.8C317.1,765,323.3,758.7,331.1,758.7C331.1,758.7,331.1,758.7,331.1,758.7z"/>
				<path class="st3" d="M331.1,758.7h16.5c7.7,0,14,6.3,14,14v32.8c0,2.4-1.9,4.3-4.3,4.3l0,0h-36c-2.4,0-4.3-1.9-4.3-4.3l0,0
					v-32.8C317.1,765,323.3,758.7,331.1,758.7C331.1,758.7,331.1,758.7,331.1,758.7z"/>
				<path class="st0" d="M319.2,758.7h16.6c7.7,0,14,6.3,14,14v32.8c0,2.4-1.9,4.3-4.3,4.3l0,0h-36.1c-2.4,0-4.3-1.9-4.3-4.3l0,0
					v-32.8C305.1,765,311.4,758.7,319.2,758.7C319.1,758.7,319.1,758.7,319.2,758.7z"/>
				<path class="st0" d="M319.1,777.5h21.8c1.9,0,3.4,1.5,3.4,3.4v11c0,1.9-1.5,3.4-3.4,3.4h-21.8c-1.9,0-3.4-1.5-3.4-3.4v-11
					C315.6,779,317.2,777.5,319.1,777.5z"/>
				<path class="st0" d="M316.4,775.2h21.8c1.9,0,3.4,1.5,3.4,3.4v11c0,1.9-1.5,3.4-3.4,3.4h-21.8c-1.9,0-3.4-1.5-3.4-3.4v-11
					C312.9,776.7,314.5,775.2,316.4,775.2z"/>
			</g>
		</g>
		<g id="SHELVES">
			<g id="RIGHT">
				<path id="TOWEL" class="st3" d="M1107.6,402.6v125.7h101.6V411.6c0-5-5.1-9-11.4-9L1107.6,402.6z"/>
				<g id="SHELF">
					<polygon class="st0" points="1045.9,363.2 1071.7,363.2 1071.7,377.3 1045.9,372.9 					"/>
					<line class="st1" x1="1071.3" y1="407" x2="1482" y2="407"/>
					<rect x="1025.8" y="337.4" class="st0" width="502.5" height="25.8"/>
					<rect x="1045.9" y="363.2" class="st0" width="25.8" height="43.8"/>
					<polygon class="st0" points="1482.8,363.2 1508.5,363.2 1508.5,377.3 1482.8,372.9 					"/>
					<rect x="1482.7" y="363.2" class="st0" width="25.8" height="43.8"/>
				</g>
				<g id="TOWEL-2">
					<path class="st0" d="M1197.8,402.6c-6.6,0-12,4-12,9v89.2h-94.4v-89.2c0-5,5.4-9,12-9L1197.8,402.6z"/>
				</g>
				<g id="DISHES">
					<circle class="st0" cx="1116" cy="260.2" r="75.5"/>
					
						<ellipse transform="matrix(0.3414 -0.9399 0.9399 0.3414 490.4506 1220.371)" class="st0" cx="1116" cy="260.2" rx="42.1" ry="42.1"/>
					<path class="st0" d="M1236.7,287h100.5c0,4.3-3.5,7.8-7.8,7.8h-84.9C1240.2,294.8,1236.7,291.3,1236.7,287L1236.7,287z"/>
					<path class="st0" d="M1227.4,304.4h119c0,5.1-4.2,9.3-9.3,9.3l0,0h-100.5C1231.5,313.6,1227.4,309.5,1227.4,304.4
						C1227.4,304.4,1227.4,304.4,1227.4,304.4L1227.4,304.4z"/>
					<path class="st0" d="M1214.7,324.5h144.4c0,6.2-5,11.2-11.2,11.2H1226C1219.7,335.7,1214.7,330.7,1214.7,324.5z"/>
					<path class="st0" d="M1222.8,278.9h128.3c0.8,0,1.3,0.6,1.3,1.4c0,0.6-0.4,1-0.9,1.2l-13.6,5h-102l-13.6-5
						c-0.7-0.3-1.1-1.1-0.8-1.8C1221.7,279.2,1222.2,278.9,1222.8,278.9z"/>
					<path class="st0" d="M1235.9,286.5h102c0,4.4-3.6,7.9-7.9,8h-86.1C1239.5,294.4,1235.9,290.9,1235.9,286.5
						C1235.9,286.5,1235.9,286.5,1235.9,286.5L1235.9,286.5z"/>
					<path class="st0" d="M1211,294.5h151.9c0.9,0,1.6,0.7,1.6,1.6c0,0.7-0.4,1.3-1.1,1.5l-16.1,5.9h-120.8l-16.1-5.9
						c-0.8-0.3-1.3-1.2-1-2.1C1209.7,294.9,1210.3,294.5,1211,294.5z"/>
					<path class="st0" d="M1226.5,303.5h120.8c0,5.2-4.2,9.4-9.4,9.4l0,0h-102C1230.7,312.9,1226.5,308.7,1226.5,303.5
						C1226.5,303.5,1226.5,303.5,1226.5,303.5L1226.5,303.5z"/>
					<path class="st0" d="M1194.8,313h184.3c1.1,0,2,0.8,2,1.9c0,0.8-0.5,1.6-1.3,1.9l-19.5,7.1h-146.5l-19.5-7.1
						c-1-0.4-1.5-1.5-1.2-2.5C1193.2,313.5,1193.9,313,1194.8,313z"/>
					<path class="st0" d="M1213.7,323.9h146.5c0,6.3-5.1,11.4-11.4,11.4c0,0,0,0,0,0h-123.7C1218.8,335.3,1213.7,330.2,1213.7,323.9
						C1213.7,323.9,1213.7,323.9,1213.7,323.9L1213.7,323.9z"/>
				</g>
				<g id="CUPS">
					<path class="st0" d="M1265,413.3l32.5,32.6c4.7,4.8,4.5,12.7-0.6,17.7l-12.4,12.3c-5.1,5-13,5.3-17.7,0.5l-32.6-32.6
						L1265,413.3z"/>
					<path class="st1" d="M1271.6,419.9L1271.6,419.9c5.8-5.7,14.8-6,20.2-0.6l6.6,6.6c5.4,5.4,5.1,14.4-0.7,20.2l0,0"/>
					<rect x="1281.5" y="407" class="st0" width="3.8" height="13.2"/>
					<path class="st0" d="M1353,413.3l32.6,32.6c4.7,4.8,4.5,12.7-0.6,17.7l-12.4,12.3c-5,5-13,5.3-17.7,0.5l-32.6-32.6L1353,413.3z
						"/>
					<path class="st0" d="M1353,413.3l32.6,32.6c4.7,4.8,4.5,12.7-0.6,17.7l-12.4,12.3c-5,5-13,5.3-17.7,0.5l-32.6-32.6L1353,413.3z
						"/>
					<path class="st1" d="M1359.5,419.9L1359.5,419.9c5.8-5.7,14.8-6,20.2-0.6l6.6,6.6c5.4,5.4,5.1,14.4-0.7,20.2l0,0"/>
					<path class="st0" d="M1337.9,441.7c1.2,1.3,1.2,3.3,0,4.5c-1.3,1.2-3.3,1.2-4.5,0c-1.2-1.2-1.2-3.3,0-4.5
						C1334.6,440.5,1336.6,440.5,1337.9,441.7C1337.9,441.7,1337.9,441.7,1337.9,441.7z"/>
					<path class="st0" d="M1355.2,424.4c1.3,1.3,1.3,3.3,0,4.5c-1.3,1.3-3.3,1.3-4.5,0c-1.3-1.3-1.3-3.3,0-4.5
						C1351.9,423.1,1353.9,423.1,1355.2,424.4C1355.2,424.4,1355.2,424.4,1355.2,424.4z"/>
					<path class="st0" d="M1346.5,433.1c1.2,1.3,1.2,3.3,0,4.5c-1.3,1.2-3.3,1.2-4.5,0c-1.2-1.2-1.2-3.3,0-4.5
						C1343.2,431.8,1345.3,431.8,1346.5,433.1C1346.5,433.1,1346.5,433.1,1346.5,433.1z"/>
					<path class="st0" d="M1339.8,453.7c1.2,1.3,1.2,3.3,0,4.5c-1.3,1.2-3.3,1.2-4.5,0c-1.2-1.2-1.2-3.3,0-4.5
						C1336.5,452.4,1338.6,452.4,1339.8,453.7C1339.8,453.7,1339.8,453.7,1339.8,453.7z"/>
					<path class="st0" d="M1358,435.5c1.2,1.3,1.2,3.3,0,4.5c-1.3,1.2-3.3,1.2-4.5,0c-1.2-1.2-1.2-3.3,0-4.5
						C1354.8,434.2,1356.8,434.2,1358,435.5C1358,435.5,1358,435.5,1358,435.5z"/>
					<path class="st0" d="M1367.1,426.4c1.2,1.3,1.2,3.3,0,4.5c-1.3,1.2-3.3,1.2-4.5,0c-1.2-1.2-1.2-3.3,0-4.5
						C1363.9,425.1,1365.9,425.1,1367.1,426.4C1367.1,426.4,1367.1,426.4,1367.1,426.4z"/>
					<path class="st0" d="M1348.9,444.6c1.2,1.3,1.2,3.3,0,4.5c-1.3,1.2-3.3,1.2-4.5,0c-1.2-1.2-1.2-3.3,0-4.5
						C1345.7,443.3,1347.7,443.3,1348.9,444.6C1348.9,444.6,1348.9,444.6,1348.9,444.6z"/>
					<path class="st0" d="M1351.8,455.7c1.2,1.3,1.2,3.3,0,4.5c-1.3,1.2-3.3,1.2-4.5,0c-1.2-1.2-1.2-3.3,0-4.5
						C1348.5,454.4,1350.5,454.4,1351.8,455.7C1351.8,455.6,1351.8,455.7,1351.8,455.7z"/>
					<path class="st0" d="M1369.1,438.3c1.2,1.3,1.2,3.3,0,4.5c-1.3,1.2-3.3,1.2-4.5,0c-1.2-1.2-1.2-3.3,0-4.5
						C1365.8,437.1,1367.9,437.1,1369.1,438.3C1369.1,438.3,1369.1,438.3,1369.1,438.3z"/>
					<path class="st0" d="M1360.5,447c1.2,1.3,1.2,3.3,0,4.5c-1.3,1.2-3.3,1.2-4.5,0c-1.2-1.2-1.2-3.3,0-4.5
						C1357.2,445.7,1359.2,445.7,1360.5,447C1360.4,447,1360.4,447,1360.5,447z"/>
					<path class="st0" d="M1353.7,467.6c1.2,1.3,1.2,3.3,0,4.5c-1.3,1.2-3.3,1.2-4.5,0c-1.2-1.2-1.2-3.3,0-4.5
						C1350.4,466.4,1352.5,466.3,1353.7,467.6C1353.7,467.6,1353.7,467.6,1353.7,467.6z"/>
					<circle class="st0" cx="1369.7" cy="451.7" r="3.2"/>
					<circle class="st0" cx="1378.8" cy="442.6" r="3.2"/>
					<path class="st0" d="M1362.9,458.5c1.2,1.3,1.2,3.3,0,4.5c-1.3,1.2-3.3,1.2-4.5,0c-1.2-1.2-1.2-3.3,0-4.5
						C1359.6,457.3,1361.6,457.2,1362.9,458.5C1362.8,458.5,1362.8,458.5,1362.9,458.5z"/>
					<path class="st0" d="M1365.7,469.6c1.2,1.3,1.2,3.3,0,4.5c-1.3,1.2-3.3,1.2-4.5,0c-1.2-1.2-1.2-3.3,0-4.5
						C1362.4,468.3,1364.5,468.3,1365.7,469.6C1365.7,469.6,1365.7,469.6,1365.7,469.6z"/>
					<path class="st0" d="M1383,452.2c1.2,1.3,1.2,3.3,0,4.5c-1.3,1.2-3.3,1.2-4.5,0c-1.2-1.2-1.2-3.3,0-4.5
						C1379.7,451,1381.8,451,1383,452.2C1383,452.2,1383,452.2,1383,452.2z"/>
					<path class="st0" d="M1374.4,460.9c1.3,1.3,1.3,3.3,0,4.5c-1.3,1.3-3.3,1.3-4.5,0c-1.3-1.3-1.3-3.3,0-4.5
						C1371.1,459.7,1373.1,459.7,1374.4,460.9C1374.4,460.9,1374.4,460.9,1374.4,460.9z"/>
					<rect x="1368.4" y="407" class="st0" width="3.8" height="13.2"/>
					<path class="st0" d="M1440.9,413.3l32.6,32.6c4.7,4.8,4.5,12.7-0.6,17.7l-12.4,12.3c-5,5-13,5.3-17.7,0.5l-32.6-32.6
						L1440.9,413.3z"/>
					<path class="st1" d="M1447.5,419.9L1447.5,419.9c5.8-5.7,14.8-6,20.2-0.6l6.6,6.6c5.4,5.4,5.1,14.4-0.6,20.2l0,0"/>
					<rect x="1456" y="407" class="st0" width="3.8" height="13.2"/>
				</g>
				<g id="CUTTING_BOARD-3">
					<path class="st0" d="M1485.3,200.5h-9.2c-6.9,0.1-12.5-5.5-12.5-12.3c0,0,0,0,0,0v-2.7c0-1.6,0.3-3.2,0.9-4.7
						c0.3-0.7,0.6-1.4,1.1-2c0.6-1.5,0.9-3.1,0.9-4.7v-1.8c-0.1-6.8-5.7-12.3-12.5-12.2h-1.8c-6.9-0.1-12.5,5.5-12.5,12.3
						c0,0,0,0,0,0v1.8c0,1.6,0.3,3.2,0.9,4.7c0.4,0.6,0.8,1.3,1.1,2c0.6,1.5,0.9,3.1,0.9,4.7v2.6c0,6.8-5.6,14.3-12.5,14.3h-9.2
						c-8.7,0-15.7,4.9-15.7,13.4V321c0.1,8.6,7.1,15.5,15.7,15.4h64.4c8.6,0.1,15.6-6.8,15.7-15.4V215.9
						C1500.9,207.3,1493.9,200.4,1485.3,200.5C1485.3,200.5,1485.3,200.5,1485.3,200.5z M1453.1,170.5c1.9,0,3.4,1.6,3.4,3.5
						c0,1.9-1.6,3.4-3.5,3.4c-1.9,0-3.4-1.6-3.4-3.5C1449.5,172,1451.1,170.4,1453.1,170.5L1453.1,170.5L1453.1,170.5z"/>
					<path class="st0" d="M1480.6,198.9h-9.2c-6.9,0-12.5-5.6-12.5-12.5c0,0,0,0,0,0v-2.7c0-1.6,0.3-3.2,0.9-4.8
						c0.3-0.7,0.6-1.4,1.1-2c0.6-1.5,0.9-3.1,0.9-4.8v-1.8c0-6.9-5.6-12.5-12.5-12.5c0,0,0,0,0,0h-1.8c-6.9,0-12.5,5.6-12.5,12.5
						c0,0,0,0,0,0v1.8c0,1.6,0.3,3.2,0.9,4.8c0.4,0.6,0.7,1.3,1,2c0.6,1.5,0.9,3.1,0.9,4.8v2.7c0,6.9-5.6,12.5-12.5,12.5h-9.2
						c-8.7,0-15.7,7-15.7,15.7c0,0,0,0,0,0v107c0,8.7,7,15.7,15.7,15.7l0,0h64.4c8.7,0,15.7-7,15.7-15.7c0,0,0,0,0,0v-107
						C1496.3,205.9,1489.3,198.9,1480.6,198.9z M1448.4,175.4c-2,0-3.5-1.6-3.5-3.5c0-2,1.6-3.5,3.5-3.5s3.5,1.6,3.5,3.5
						c0,0,0,0,0,0C1451.9,173.8,1450.4,175.4,1448.4,175.4C1448.4,175.4,1448.4,175.4,1448.4,175.4z"/>
				</g>
			</g>
			<g id="LEFT">
				<g id="WINE_GLASSES">
					<path class="st0" d="M290.6,222.3h30.1l0,0v40.8c0,8.3-6.7,15-15,15l0,0c-8.3,0-15-6.7-15-15L290.6,222.3L290.6,222.3z"/>
					<line class="st1" x1="305.6" y1="278.1" x2="305.6" y2="326.1"/>
					<polygon class="st0" points="321.5,337.4 305.6,326.3 289.7,337.4 					"/>
					<path class="st0" d="M341.8,222.3h30.1l0,0v40.8c0,8.3-6.7,15-15,15l0,0c-8.3,0-15-6.7-15-15L341.8,222.3L341.8,222.3z"/>
					<line class="st1" x1="356.8" y1="278.1" x2="356.8" y2="326.1"/>
					<polygon class="st0" points="372.7,337.4 356.8,326.3 340.9,337.4 					"/>
					<path class="st0" d="M393,222.3h30.1l0,0v40.8c0,8.3-6.7,15-15,15l0,0c-8.3,0-15-6.7-15-15L393,222.3L393,222.3z"/>
					<line class="st1" x1="408.1" y1="278.1" x2="408.1" y2="326.1"/>
					<polygon class="st0" points="424,337.4 408.1,326.3 392.2,337.4 					"/>
				</g>
				<g id="SHELF-2">
					<line class="st1" x1="177.7" y1="407" x2="454.7" y2="407"/>
					<polygon class="st0" points="454.5,363.2 480.3,363.2 480.3,377.3 454.5,372.9 					"/>
					<polygon class="st0" points="151.9,363.2 177.7,363.2 177.7,377.3 151.9,372.9 					"/>
					<rect x="116.1" y="337.4" class="st0" width="400.1" height="25.8"/>
					<rect x="151.9" y="363.2" class="st0" width="25.8" height="43.8"/>
					<rect x="454.5" y="363.2" class="st0" width="25.8" height="43.8"/>
				</g>
				<g id="PLANT">
					<path class="st5" d="M155.2,280.3h91l0,0v10.5c0,25.1-20.4,45.5-45.5,45.5l0,0c-25.1,0-45.5-20.4-45.5-45.5L155.2,280.3
						L155.2,280.3L155.2,280.3z"/>
					<path class="st0" d="M196.1,280.3c0,0,3.7-64.9,25.7-95.6"/>
					<path class="st4" d="M203.9,228.4c0,0,3.7-28.2,31-29.9C234.9,198.5,238.8,229,203.9,228.4z"/>
					<path class="st4" d="M208.6,211.1c0,0,15.5-30.4-7.9-42.3C200.7,168.9,186.8,197.4,208.6,211.1z"/>
					<path class="st4" d="M148.9,234.8c0,0-1.4-34.1-27.6-33C121.3,201.8,123.2,233.5,148.9,234.8z"/>
					<path class="st4" d="M198.5,257.3c0,0,10.8-34.5-13.3-46.1C185.2,211.1,172.9,245.5,198.5,257.3z"/>
					<path class="st4" d="M197.4,270.8c0,0-3.5-31.9,24.4-36.6C221.8,234.2,228,266.1,197.4,270.8z"/>
					<path class="st4" d="M221,185.7c0,0-3.5-31.9,24.4-36.5C245.4,149.1,251.6,181,221,185.7z"/>
					<line class="st1" x1="148.3" y1="234.2" x2="182.2" y2="280.3"/>
					<path class="st4" d="M164.5,256.1c0,0-15.9-20.5-7-42.7C157.5,213.5,177,228.5,164.5,256.1z"/>
					<path class="st4" d="M167.1,259.7c0,0-18.8,12.7-36.6-10.7C130.5,249,151.9,239.1,167.1,259.7z"/>
					<path class="st4" d="M182.2,280.1c0,0-14.9,14.1-34.2-4.2C148,275.9,165.7,264,182.2,280.1z"/>
					<path class="st4" d="M182.2,280.3c0,0-13.9-15.8-4-32C178.3,248.3,194.1,264.1,182.2,280.3z"/>
					<path class="st4" d="M221.7,280.2c0,0,4-23.4,25.1-26.2C246.9,254,250.4,280.2,221.7,280.2z"/>
				</g>
				<g id="KITCHEN_SET">
					<rect x="306.1" y="450" class="st0" width="3.3" height="93.3"/>
					<path class="st0" d="M319.8,588h-24.1c-3.4-0.1-6.1-2.9-6-6.3c0-0.3,0-0.6,0.1-0.9l1.7-33.4c0.4-3,2.9-5.2,5.9-5.3H318
						c3,0,5.5,2.3,5.9,5.3l1.8,33.4c0.5,3.3-1.7,6.5-5.1,7.1C320.4,588,320.1,588,319.8,588z"/>
					<line class="st1" x1="307.7" y1="551.6" x2="307.7" y2="580"/>
					<line class="st1" x1="315.1" y1="554" x2="315.1" y2="577.7"/>
					<line class="st1" x1="300.3" y1="554" x2="300.3" y2="577.7"/>
					<path class="st0" d="M312.1,409.8l-1.5,38.6c-0.1,1.5-1.4,2.7-2.9,2.7l0,0c-1.5,0-2.8-1.2-2.9-2.8l-1.5-34.7
						c0-4.8-3.9-8.7-8.7-8.7l0,0l0,0c0.1-2.2,1.8-3.9,4-3.9h4.7C308.2,401.2,312.1,405,312.1,409.8z"/>
					<rect x="200.6" y="450" class="st0" width="3.3" height="97.4"/>
					<path class="st0" d="M164,576.1c8.2,11.7,23.3,14.3,34.6,5.9l0,0c11.3-8.4,12.2-24.8,4.1-36.5L164,576.1z"/>
					<path class="st0" d="M206.5,409.8l-1.5,38.6c-0.1,1.5-1.3,2.8-2.9,2.8l0,0c-1.5,0-2.8-1.2-2.9-2.8l-1.5-34.7
						c0-4.8-3.9-8.7-8.7-8.7l0,0c0-2.2,1.8-3.9,3.9-3.9l0,0h4.7C202.6,401.1,206.5,405,206.5,409.8z"/>
					<rect x="362.8" y="450" class="st0" width="3.3" height="93.3"/>
					<path class="st0" d="M376.6,555l-2,33.5h-0.4l-3-31.2c-0.2-1.7-0.9-3.3-2.2-4.5c-1.2-1.2-2.8-1.8-4.5-1.8
						c-3.5,0-6.4,2.7-6.7,6.2l-3.2,31.2h-0.1l-2-33.5c-0.1-6.8,5.3-12.3,12-12.5c3.2,0,6.3,1.3,8.5,3.6
						C375.3,548.6,376.6,551.7,376.6,555z"/>
					<path class="st0" d="M368.8,409.8l-1.5,38.6c-0.1,1.5-1.3,2.8-2.9,2.8l0,0c-1.5,0-2.8-1.2-2.9-2.8l-1.5-34.7
						c0-4.8-3.9-8.7-8.7-8.7l0,0c0-2.2,1.8-3.9,3.9-3.9h4.7C364.9,401.1,368.8,405,368.8,409.8z"/>
					<rect x="252" y="450" class="st0" width="3.3" height="73.6"/>
					<path class="st0" d="M269.4,563.4c1,15.5-6.1,25.1-15.7,25.1c-8.5,0-16.9-11.1-15.7-25.1c1.2-13.8,9.2-40.9,15.7-40.9
						S268.5,549.6,269.4,563.4z"/>
					<path class="st0" d="M263.5,564.6c0.6,14.7-5.2,23.9-9.8,23.9c-3.7,0-10.5-10.5-9.8-23.9c0.8-13.2,5.7-41.2,9.8-41.2
						S262.9,551.5,263.5,564.6z"/>
					<path class="st0" d="M257.3,409.8l-1.5,38.6c-0.1,1.5-1.3,2.8-2.9,2.8l0,0c-1.5,0-2.8-1.2-2.9-2.8l-1.5-34.7
						c0-4.8-3.9-8.7-8.7-8.7c0,0,0,0,0,0l0,0c0-2.2,1.8-3.9,3.9-3.9h4.7C253.4,401.1,257.3,405,257.3,409.8z"/>
					<line class="st1" x1="253.7" y1="523.4" x2="253.7" y2="588.5"/>
				</g>
				<g id="OVEN_MITT">
					<path class="st0" d="M483.9,439.9c-1.2-1.4-2.9-2.4-4.7-2.8l-29.7-6.3l-6.4-7L402.4,461l36.5,39.8c12.4,13.5,31.5,16.8,42.8,7
						c6-5.2,8.8-12.8,8.3-21c-0.6-8.6-4.2-16.7-10.1-23l-5.9-6.4c-1.5-1.7-1.2-4.1,0.7-4.7l8.5-2.5c0.6-0.2,1.1-0.5,1.5-0.9
						C487.1,447.4,486.9,443.1,483.9,439.9z"/>
					<path class="st5" d="M480.2,441.8c-1.2-1.4-2.9-2.4-4.7-2.8l-29.7-6.3l-6.4-7L398.7,463l36.5,39.8c12.4,13.5,31.5,16.8,42.9,7
						c6-5.2,8.8-12.8,8.3-21c-0.6-8.6-4.2-16.7-10.1-23l-5.8-6.4c-1.5-1.7-1.2-4.1,0.7-4.7l8.5-2.5c0.6-0.2,1.1-0.5,1.5-0.9
						C483.4,449.3,483.2,445,480.2,441.8z"/>
					<path class="st0" d="M431.4,409.5c0.1,2.3,4.7,9.5,4.7,9.5s3.9-7.5,3.8-9.9c-0.1-2.3-2.2-4.1-4.5-4
						C433.1,405.3,431.4,407.2,431.4,409.5z"/>
					<path class="st5" d="M435.2,420.1l-42.3,38.8c-0.7,0.7-0.8,1.8-0.1,2.6c0,0,0,0,0,0l3,3.3c0.7,0.7,1.8,0.8,2.6,0.1c0,0,0,0,0,0
						l42.4-38.8c0.7-0.7,0.8-1.8,0.1-2.6l-3-3.3C437.2,419.5,436,419.4,435.2,420.1C435.2,420.1,435.2,420.1,435.2,420.1z"/>
				</g>
			</g>
		</g>
		<g id="PICTURE">
			<rect x="496.7" y="100.2" class="st3" width="146.4" height="146.4"/>
			<rect x="490.2" y="93.8" class="st0" width="146.4" height="146.4"/>
			<rect x="513.5" y="117.1" class="st0" width="99.7" height="99.7"/>
			<path class="st0" d="M563.9,144.6c0,0,2.7-9.1-3.6-11.8"/>
			<path class="st4" d="M577.4,158.9c0.6,3.4,1.9,6.7,3.8,9.6c6.6,9.8,3.9,23.1-5.9,29.7c-9.8,6.6-23.1,3.9-29.7-5.9
				c-4.7-7.1-4.8-16.3-0.2-23.5c2-3,3.3-6.3,4-9.8l0.1-0.8c0.2-0.9,0.2-1.8,0.3-2.7c0.6-6.3,5.9-11.2,12.3-11.2h2.6
				c6.4,0,11.7,4.9,12.3,11.2c0.1,0.9,0.2,1.8,0.3,2.7L577.4,158.9z"/>
			<path class="st0" d="M565.1,144.1c0,0-0.7-8.3,11.3-12.1C576.3,132.1,578,147,565.1,144.1z"/>
		</g>
	</g>
</g>
</svg>
