<?xml version="1.0" encoding="utf-8"?>
<!-- Generator: Adobe Illustrator 25.0.0, SVG Export Plug-In . SVG Version: 6.00 Build 0)  -->
<svg version="1.1" id="Layer_1" xmlns="http://www.w3.org/2000/svg" xmlns:xlink="http://www.w3.org/1999/xlink" x="0px" y="0px"
	 viewBox="0 0 1826.4 1254" style="enable-background:new 0 0 1826.4 1254;" xml:space="preserve">
<style type="text/css">
	.st0{fill:none;stroke:#070707;stroke-width:4;stroke-linecap:round;stroke-linejoin:round;}
	.st1{fill:#F7F3EF;stroke:#070707;stroke-width:4;stroke-linecap:round;stroke-linejoin:round;}
	
		.st2{opacity:0.7;fill:#F7F3EF;stroke:#070707;stroke-width:4;stroke-linecap:round;stroke-linejoin:round;enable-background:new    ;}
	.st3{fill:#EFAF00;stroke:#000000;stroke-width:4;stroke-linecap:round;stroke-linejoin:round;}
	.st4{fill:#1C0E0C;}
	.st5{fill:#C48270;stroke:#0F0F0F;stroke-width:4;stroke-linecap:round;stroke-linejoin:round;}
	.st6{fill:#EA631F;stroke:#070707;stroke-width:4;stroke-linecap:round;stroke-linejoin:round;}
	.st7{fill:#F1BB26;}
	.st8{fill:#C48270;}
	.st9{fill:#F7F3EF;}
	.st10{clip-path:url(#SVGID_2_);}
	.st11{fill:#F7F3EF;stroke:#070707;stroke-width:4;stroke-linecap:round;stroke-linejoin:round;stroke-miterlimit:4;}
	.st12{fill:#F7F3EF;stroke:#070707;stroke-width:3.9984;stroke-linecap:round;stroke-linejoin:round;stroke-miterlimit:3.9984;}
	.st13{fill:#EA631F;stroke:#070707;stroke-width:4;stroke-linecap:round;stroke-linejoin:round;stroke-miterlimit:4;}
	
		.st14{opacity:0.5;fill:#F7F3EF;stroke:#070707;stroke-width:4;stroke-linecap:round;stroke-linejoin:round;enable-background:new    ;}
	.st15{fill:#E57B07;stroke:#070707;stroke-width:4;stroke-linecap:round;stroke-linejoin:round;}
</style>
<g id="Chars">
	<line class="st0" x1="192.2" y1="717.4" x2="1662" y2="717.4"/>
	<g id="WINDOW">
		<line class="st0" x1="1163.7" y1="93.8" x2="1662" y2="93.8"/>
		<rect x="1216" y="123.1" class="st1" width="373.9" height="521.3"/>
		<rect x="1231.3" y="137.6" class="st1" width="341.4" height="490.7"/>
		<path class="st2" d="M1408.3,93.8h219.9v593.8h-96c0,0-4.1-124.8,36.5-169.4C1568.6,518.3,1404.5,300.4,1408.3,93.8z"/>
		<path class="st1" d="M1408.3,93.8h219.9v593.8h-96c0,0-4.1-124.8,36.5-169.4C1568.6,518.3,1404.5,300.4,1408.3,93.8z"/>
		<path class="st1" d="M1629,510.6h3.7c2.2,0,3.9,1.8,3.9,3.9v0l0,0c0,2.2-1.8,3.9-3.9,3.9l0,0H1560"/>
		<path class="st1" d="M1592.8,494.3L1592.8,494.3c6.6,0,12,5.4,12.1,12l0,0c0,6.7-5.4,12-12.1,12l0,0h-12.1l0,0v-12
			C1580.8,499.7,1586.1,494.3,1592.8,494.3z"/>
		<path class="st1" d="M1572.7,502.4L1572.7,502.4c4.4,0,8,3.6,8,8v8h-8c-4.4,0-8-3.6-8-8l0,0C1564.7,506,1568.3,502.4,1572.7,502.4
			z"/>
		<path class="st1" d="M1580.7,518.4v25.9c0,3.3,2.7,6,6,6l0,0c3.3,0,6-2.7,6-6"/>
		<path class="st1" d="M1577.1,518.4V531c0,3.1-2.5,5.6-5.6,5.6c0,0,0,0,0,0h-0.6c-3.1,0-5.6-2.5-5.7-5.6c0,0,0,0,0,0l0,0"/>
	</g>
	<g id="GIRL">
		<g id="CHAIR">
			<path class="st1" d="M407.6,1098.9L366,1458.6c-0.2,2.3,1.6,4.3,3.8,4.5c0.2,0,0.3,0,0.5,0l0,0c2,0.1,3.8-1.3,4.3-3.3l67.6-360.9
				L407.6,1098.9z"/>
			<path class="st1" d="M567.1,1098.9l41.6,352.8c0.2,2.3-1.6,4.3-3.9,4.5c-0.2,0-0.3,0-0.5,0l0,0c-2,0.1-3.8-1.3-4.3-3.3l-67.6-354
				L567.1,1098.9z"/>
			<path class="st1" d="M380.5,1076.8h210.3c3.7,0,6.6,3,6.6,6.6v8.9c0,3.7-3,6.6-6.6,6.6H380.5c-3.7,0-6.6-3-6.6-6.6v-8.9
				C373.9,1079.8,376.9,1076.8,380.5,1076.8z"/>
		</g>
		<g id="LEGS">
			<g id="RIGHT_LEG">
				<path id="SHOES" class="st3" d="M379.2,1054.4c-4.3-2.1-8.8-3.8-13.3-5.3c-13.5-3.7-18.3,3.3-18.3,3.3l13.7,80
					c0,0,15.1-0.8,18.2-22.6c3.2-22.8,8.3-30.7,8.3-30.7L379.2,1054.4z"/>
				<path id="LEG" class="st4" d="M617.6,980.7c-5.8,69.1-24.1,96.7-45.8,96.7c-0.3,0-0.5,0-0.8-0.1c-139.3-1.7-203.7,3.7-205-6.2
					c-1.1-7.9,43.1-45.1,93.3-57c46.4-11,50.2,2.9,76.8-7.2c-1.8-7.3-3.3-15-4.6-23.1c5.9,0.3,11.4,0.6,16.7,0.7
					C584.6,985.6,606.3,982.9,617.6,980.7z"/>
			</g>
			<g id="LEFT_LEG">
				<path id="SHOES-2" class="st3" d="M307.4,1054.7c-4.7-0.9-9.4-1.5-14.2-1.8c-14-0.2-16.9,7.8-16.9,7.8l33.2,74
					c0,0,14.4-4.5,11.9-26.4c-2.6-22.9,0.4-31.8,0.4-31.8L307.4,1054.7z"/>
				<path id="LEG-2" class="st5" d="M548.1,984.5c-2.7,66.3-12.5,92.9-46.8,92.9c-0.3,0-0.6,0-0.8-0.1c-94.1-1.1-153.9,1-183.3-0.6
					c-14.1-0.8-10.8-18.8-9.8-21.9c0,0,31.2-28.8,81.4-40.7c46.4-11,54.6,2.6,77.5-4.3c-2.7-10.8-4.9-21.8-6.4-32.9
					C496,981.6,525,983.8,548.1,984.5z"/>
			</g>
		</g>
		<path id="DRESS-2" class="st1" d="M483.4,625.9c-10.3,7.9-27.8,21.3-34.9,43.5c18.4,3.2,44.7,14.1,55,20.9c0,0-4.6,13.6-9.1,21.7
			c-52.8,94.5-52.8,262.2-52.8,262.2c142.5,21.1,186.1,4,186.1,4c2.1-86.7-11.3-247.4-21.4-329.8c8.6,2.4,17.5,4,26.4,4.6
			c-2.7-43.8,7.6-57.6,7.6-57.6c-16.7-5.3-43.2-5.6-56.4-4.3c-8.2,0.4-16.9,1.4-16.9,1.4C562.4,593.1,503.1,611,483.4,625.9z"/>
		<path id="APRON" class="st3" d="M581.7,589.3c50.7,62.1,46.3,312.2,46.3,312.2l-66.9,0.2c-25.6,0.1-47.1-19.3-49.5-44.8
			c-6.5-70.7-42.5-76.1-42.5-76.1l5.5-15.3c0,0,62.1-13,58.8-74.3c-3-54-37.4-76-37.4-76s10-5.4,17.8-6.7
			c7.8-1.3,30.4,40.5,36.2,44.3c1.5,1,21.6-4.1,39.4-10.9c0,0-18.5-46.6-22-49.8S581.7,589.3,581.7,589.3z"/>
		<g id="HANDS">
			<g id="RIGHT_HAND">
				<path id="HAND" class="st5" d="M799.4,549.9c5.2,0.9,9.7,10.7,10.3,11.9s3,7.7,3,7.7s-5.3,3.1-7.9-1.7
					c-3.2-5.8-5.9-5.6-10.3-4.9c-1.8,0.3-3.8,1.4-3,3.8s7.9,1.5,9.8,2.5c2.9,1.4,3.1,4.9,3.1,4.9l-13.2,1.2
					c-1.6,0.2-10.3-2.1-17.6-5.6c-11.3,15.9-44.1,58.2-81.3,70.7c-25.8,8.6-46.6,9.3-59.9,8.2c-1.6-37.2,6.5-51,7.7-52.8
					c13.5,0.5,28.4,0.1,42.3-2.2c20-3.4,51-30.5,82.5-39C767.5,554,785,547.4,799.4,549.9z"/>
				<g id="CHERRY">
					<path class="st1" d="M795.5,589.2c0,0,14.7-6.4,8.6-20.3"/>
					<circle class="st6" cx="793.4" cy="595.1" r="8.2"/>
				</g>
				<path id="SHADOW" class="st4" d="M643.5,595.7c0,0-7.1,19.8,2.3,53.1c-4.5,0.1-9,0-13.4-0.4c-1.6-37.2,6.5-51,7.7-52.8
					L643.5,595.7z"/>
			</g>
			<g id="LEFT_HAND">
				<path id="HAND-2" class="st5" d="M564.4,821.8c0,0-7.1,4.5-13.3,5.6c-8.1,1.4-22.3-3.5-26.4-8.5c-45.1-6.1-83.1-64.7-83.1-75.4
					c0-13,2.8-45.4,16.3-72c16.7,4.4,36.8,13.1,45.8,18.8c-9.3,23.5-11.6,47.4-12.5,49.5c-1.4,3.3,29.7,59,33.7,64.6
					c11.9-2.2,15,1,16.4,3.9s2,11.4,17.3,9.2C562.7,817,564.4,821.8,564.4,821.8z"/>
				<path id="SHADOW-2" class="st4" d="M503.4,690.3c-1.5,3.7-3,7.3-4.6,10.9c-9.7-8.1-26.3-14.6-47.9-15.3
					c2.2-4.8,4.5-9.7,6.9-14.4C474.9,676.1,494.8,684.6,503.4,690.3z"/>
				<g id="CHERRY-2">
					<path class="st1" d="M563,809.4c-0.2,0.3-0.5,0.5-0.9,0.5l0,0c-0.6,0-1-0.4-1-1c0,0,0,0,0-0.1c0-0.2,0-0.3,0.1-0.4
						c-0.6-3.9-1.4-7.8-2.6-11.6c-2,7.1-9.7,10.1-9.8,10.1c-0.1,0-0.2,0.1-0.4,0.1c-0.6,0.1-1.1-0.3-1.2-0.8s0.3-1.1,0.8-1.2
						c0.4-0.2,8.9-3.5,8.9-11.5c0-0.9-0.1-1.7-0.3-2.6v-0.1c0-0.1-0.1-0.2-0.1-0.3c-0.1-0.6-0.3-1.2-0.5-1.8
						c-0.2-0.5,0.1-1.1,0.6-1.3s1.1,0.1,1.3,0.6c0.3,0.8,0.5,1.6,0.7,2.4c1.3,3.8,2.5,7.6,3.4,11.5C563.6,808.5,563.3,809,563,809.4
						z"/>
					<ellipse class="st6" cx="561.6" cy="812.5" rx="5.8" ry="5.9"/>
					<ellipse class="st6" cx="546.4" cy="809.6" rx="7.2" ry="7.3"/>
				</g>
				<line class="st0" x1="502.6" y1="689.7" x2="514.8" y2="667.9"/>
			</g>
		</g>
		<g id="HEAD">
			<g id="NECK">
				<path class="st5" d="M519.9,572.7c0,0,7.6,21.3-8,38.1c0,0,33.3,4.6,57.7-15.3c0,0-9.7-13.4-7.6-37.5L519.9,572.7z"/>
				<path class="st4" d="M569.7,595.5c-2,1.5-4.1,3.1-5,3.6c-16.4,9.6-37.6-6-43-15.3c-0.1-3.8-0.7-7.5-1.8-11.1l42.1-14.7
					C560.1,579.5,567.8,593,569.7,595.5z"/>
			</g>
			<path id="HAIR" class="st4" d="M507.5,565.7c-21.5-14.9-27.4-32.4-24.8-47c-0.8,0.1-1.7,0.1-2.5,0.1c-2.5-0.1-7.5,1.2-9.2-0.6
				s-1.9-4.8-0.2-6.5c-4.4,0.3-8.9,0.3-13.3,0c-5.1-0.3-9.6-3.2-10.8-8c-0.9-3.5,1.6-7.2,4.8-9c2.7-1.3,5.6-2,8.6-2.1
				c-4.1-2.3-9-2.4-13.2-0.2c-0.5,0.3-1.1,0.1-1.4-0.4c-0.3-0.5-0.1-1.1,0.4-1.4c2.8-1.5,6-2.2,9.1-1.8c-1.8-2-2.8-4.5-3-7.2
				c-0.3-5.6,1.8-11.2,5.7-15.2c3.7-3.5,9.4-5.4,14.7-5.5c4.1-0.1,8.1,1.7,10.7,4.9c-0.7-4,1.4-10.1,4-12c6-4.2,14.4-0.5,15.8,3.4
				c0.5,1.3,0.6,2.8,1.4,3.9c1.4-1.9,3.1-4,5.2-4.8c7.8-3.2,14.2,1.5,14.9,5.5c0.6,3.3-1.2,6.7-4.1,8.8c2.1-0.5,4.2,0.1,5.6,1.8
				c1.7,2.1,1.8,5,1.3,7.7c-0.3,1.5-0.8,2.9-1.4,4.2c1.8-0.6,4.9-2.2,5.4-7c0.1-0.6,0.6-1,1.1-0.9c0.6,0.1,1,0.6,0.9,1.1
				c-0.2,3.8-2.6,7-6.1,8.4c18.1,0,31.2,9,37.3,29.4C572.5,541.7,507.5,565.7,507.5,565.7z"/>
			<path id="SCRUNCHY" class="st7" d="M482.2,518.9c-0.2,0-0.3,0-0.5-0.1c-0.8-0.2-1.2-1.1-0.9-1.8c2.1-5.7,5.1-11.1,8.8-15.8
				c8.3-10.5,19.4-16.5,32-17.2c0.8,0,1.5,0.6,1.5,1.4c0,0.8-0.6,1.5-1.4,1.5c-11.9,0.7-21.9,6.1-29.8,16.1c-3.6,4.5-6.4,9.6-8.4,15
				C483.4,518.5,482.8,518.9,482.2,518.9z"/>
			<path id="HEAD-2" class="st5" d="M523.9,526.4c0,15.9-5.7,25.1-16.7,25.5c0,0-11-3-12.2,3.9c-1,6,8.7,9,11.7,9.7
				c4.9,4.3,34.2,28.8,57.4,15.8c25.8-14.5,7.1-89.1-28.2-77C534,505,524,508.1,523.9,526.4z"/>
		</g>
		<path class="st0" d="M502.6,690.7c0,0-9.6,35.3-12.3,46.6"/>
	</g>
	<circle class="st8" cx="504.3" cy="556.3" r="12.3"/>
	<path class="st0" d="M499.5,550.5c0,0,5.8-2.6,10.9,4.2"/>
	<line class="st0" x1="504.9" y1="551.5" x2="500.7" y2="556.3"/>
	
		<ellipse transform="matrix(0.965 -0.2622 0.2622 0.965 -122.2416 161.0593)" class="st4" cx="542.4" cy="538.6" rx="3.7" ry="4.4"/>
	
		<ellipse transform="matrix(0.965 -0.2622 0.2622 0.965 -119.5328 167.0201)" class="st4" cx="566.1" cy="531.4" rx="2.8" ry="4.4"/>
	<path class="st0" d="M557.2,535.7c0,0,9.5,2.8,8.9,5.8c-0.6,2.1-1.7,4.1-3.3,5.7"/>
	<path class="st0" d="M540.7,553.9c0,0,7,8.1,21.2,4.2"/>
	<g id="WOMAN">
		<g id="LEFT_HAND-2">
			<path class="st5" d="M1220,599.1c-54.9-3.5-113.7-82.8-132.6-110.4c-8.8,4.8-21.8,11.2-32.5,11.5c-3.8,0.1-5-8.5-5-8.5
				c-2.1-0.8-3.7-4.4-3.6-8.1c0,0-4.2-2.1-4-8c-2.2-1.6-3.8-4-4.5-6.6c-1.3-5.7,12.8-11.4,14.5-12.4c3.4-2-1.2-1.7-3.7-4.6
				c-6.8-8.1-2.4-12-2.4-12s7.4,5,14.2,6.3s15.7,3.9,17.9,5.3c5.7,3.7,11,8,15.7,12.9c27.6,19,99.4,60.3,99.4,60.3
				c2.9-141.7,30.6-146.9,48.4-151.6C1242.2,373.3,1286.6,603.4,1220,599.1z"/>
			<path class="st0" d="M1023.4,466.1l36,56.1c3.6,5.6,2,13.1-3.7,16.7c0,0,0,0,0,0l-35.6,22.8c-5.6,3.6-13.1,2-16.7-3.7L973.8,512
				l-11-7c2.1,2,20.3-6.9,35.4-16.5S1024.4,468.9,1023.4,466.1L1023.4,466.1z"/>
			<path class="st0" d="M1023.3,465.9c0,0.1,0.1,0.1,0.1,0.2c1,2.8-10.1,12.6-25.2,22.3S964.9,507,962.8,505c-0.1,0-0.1-0.1-0.2-0.2
				c-1.6-2.5,14.3-15.6,29.8-25.5S1021.7,463.4,1023.3,465.9z"/>
			<path class="st0" d="M1032.6,460.2L1032.6,460.2c6.6-4.2,18.4,0,19.8,7.6l6.9,54.4l-30.1-46.9
				C1026.1,470.2,1027.5,463.5,1032.6,460.2z"/>
			<path class="st8" d="M1071.4,485.9c1.5,5.8-3.9,8.9-17.2,13.2c0,0-0.5,0.4-6-12.1c-8-18.3-7.1-21.4-7.1-21.4
				c7.3-2.7,14.6-4.4,17.2-5.2C1063.8,458.7,1070.4,482.1,1071.4,485.9z"/>
			<path class="st5" d="M1065.3,485.9c0,0,4.5-3,6.1,0c2.7,5.4-4.5,8.7-17.8,13"/>
			<path class="st5" d="M1050.1,491.1c15-4.3,19-7.2,19-7.2c2.1-0.8,0.5-9.7-3.8-8"/>
			<path class="st5" d="M1046.3,482.7c15.8-4.8,19-6.7,19-6.7c2.3-0.7,1-9.5-4.6-7.7"/>
			<path class="st5" d="M1041.2,465.6c0.9,2.4,14.6-4.4,17.2-5.2c3.7-1.1,7.1,6.2,2.4,7.9c-5.8,2.8-11.9,5-18.2,6.6"/>
		</g>
		<g id="LEGS-2">
			<g id="RIGHT_LEG-2">
				<path class="st5" d="M1447.8,1457.2c5.6,8.4,8.4,8.9,7.4,18.4h-64.7c0,0,0.5-10.7,11-14.3s23.3-28.7,20.7-39.4l0,0
					c-8.4-32.7-19.9-85.1-29.4-130c31.8-1.6,55.6-4.3,72.8-6.8c-3.8,52.5-14.5,109.2-22.9,141.7l0,0
					C1442.2,1431.6,1442.2,1448.8,1447.8,1457.2z"/>
			</g>
			<g id="LEFT_LEG-2">
				<path class="st5" d="M1256.2,1419.4c-2.4,6.4-1.9,19.4,0.7,26.3c4.6,12,8.4,29.9-7.7,29.9h-88.6c0,0-2-11.8,21.5-15.1
					c22.7-3.2,52-16.4,51.8-39.1c-4.8-33-10.5-87.2-15.1-133.3c17.1,2,40.9,3.9,73,4.8c-8.9,46.6-23.9,95.4-35.6,126.4
					L1256.2,1419.4z"/>
				<path id="SHOES-3" class="st3" d="M1256.9,1445.7c0,0,13.4,29.9-6,29.9h-90.3c0,0-3.6-11.3,19.8-15.1c3.3-0.5,12.6-2.3,12.6-2.3
					s-2.9,8.4,17.7,7.5S1240.7,1447.2,1256.9,1445.7z"/>
			</g>
		</g>
		<g id="DRESS-3">
			<path id="DRESS-4" class="st9" d="M1500.9,1277.7c0,0-32.3-124.7-23.4-248.3c7.9-109.1,29.1-192.9-12.6-310.7l-0.3,0.1
				c-27.7-77.8-69.5-120.1-69.5-120.1c-14.1-53.4,35.8-156.7,35.6-198.6c-0.1-28-49.8-44.8-49.8-44.8L1251,370.3l-8.8,3
				c0,0-20.5,53.4-30.7,77.4c-18.4,43.5,20.1,72.9,25.3,76.1s14.2,71.8,14.2,71.8c-44,124.8-60.8,235-60.8,235
				c-25.1,140.7-7.9,448.2-7.9,448.2s39,12.2,156.5,11.5S1500.9,1277.7,1500.9,1277.7z"/>
			<g>
				<defs>
					<path id="SVGID_1_" d="M1500.9,1277.7c0,0-32.3-124.7-23.4-248.3c7.9-109.1,29.1-192.9-12.6-310.7l-0.3,0.1
						c-27.7-77.8-69.5-120.1-69.5-120.1c-14.1-53.4,35.8-156.7,35.6-198.6c-0.1-28-49.8-44.8-49.8-44.8L1251,370.3l-8.8,3
						c0,0-20.5,53.4-30.7,77.4c-18.4,43.5,20.1,72.9,25.3,76.1s14.2,71.8,14.2,71.8c-44,124.8-60.8,235-60.8,235
						c-25.1,140.7-7.9,448.2-7.9,448.2s39,12.2,156.5,11.5S1500.9,1277.7,1500.9,1277.7z"/>
				</defs>
				<clipPath id="SVGID_2_">
					<use xlink:href="#SVGID_1_"  style="overflow:visible;"/>
				</clipPath>
				<g class="st10">
					<line class="st0" x1="1198.6" y1="418.1" x2="1464.9" y2="418.1"/>
					<line class="st0" x1="1198.6" y1="468.4" x2="1464.9" y2="468.4"/>
					<line class="st0" x1="1198.6" y1="518.8" x2="1464.9" y2="518.8"/>
					<line class="st0" x1="1198.6" y1="569.1" x2="1464.9" y2="569.1"/>
					<line class="st0" x1="1198.6" y1="619.5" x2="1464.9" y2="619.5"/>
					<line class="st0" x1="1198.6" y1="669.8" x2="1464.9" y2="669.8"/>
					<line class="st0" x1="1198.6" y1="720.1" x2="1464.9" y2="720.1"/>
					<line class="st0" x1="1198.6" y1="770.5" x2="1493.9" y2="770.5"/>
					<line class="st0" x1="1174.1" y1="820.8" x2="1493.9" y2="820.8"/>
					<line class="st0" x1="1161.1" y1="871.2" x2="1555.9" y2="871.2"/>
					<line class="st0" x1="1161.1" y1="921.5" x2="1555.9" y2="921.5"/>
					<line class="st0" x1="1161.1" y1="971.8" x2="1555.9" y2="971.8"/>
					<line class="st0" x1="1161.1" y1="1022.2" x2="1555.9" y2="1022.2"/>
					<line class="st0" x1="1161.1" y1="1072.5" x2="1555.9" y2="1072.5"/>
					<line class="st0" x1="1161.1" y1="1122.9" x2="1555.9" y2="1122.9"/>
					<line class="st0" x1="1161.1" y1="1173.2" x2="1555.9" y2="1173.2"/>
					<line class="st0" x1="1161.1" y1="1223.6" x2="1598.8" y2="1223.6"/>
					<line class="st0" x1="1124.8" y1="1273.9" x2="1598.8" y2="1273.9"/>
					<line class="st0" x1="1259.1" y1="355.2" x2="1259.1" y2="1312.2"/>
					<line class="st0" x1="1304.6" y1="355.2" x2="1304.6" y2="1312.2"/>
					<line class="st0" x1="1350" y1="355.2" x2="1350" y2="1312.2"/>
					<line class="st0" x1="1395.5" y1="355.2" x2="1395.5" y2="1312.2"/>
					<line class="st0" x1="1441" y1="355.2" x2="1441" y2="1312.2"/>
					<line class="st0" x1="1213.6" y1="355.2" x2="1213.6" y2="1312.2"/>
				</g>
			</g>
			<path id="DRESS-5" class="st0" d="M1500.9,1277.7c0,0-32.3-124.7-23.4-248.3c7.9-109.1,29.1-192.9-12.6-310.7l-0.3,0.1
				c-27.7-77.8-69.5-120.1-69.5-120.1c-14.1-53.4,35.8-156.7,35.6-198.6c-0.1-28-49.8-44.8-49.8-44.8L1251,370.3l-8.8,3
				c0,0-20.5,53.4-30.7,77.4c-18.4,43.5,20.1,72.9,25.3,76.1s14.2,71.8,14.2,71.8c-44,124.8-60.8,235-60.8,235
				c-25.1,140.7-7.9,448.2-7.9,448.2s39,12.2,156.5,11.5S1500.9,1277.7,1500.9,1277.7z"/>
		</g>
		<g id="APRON-2">
			<path class="st4" d="M1301.6,814.3c-43,0-65.8-8.9-77.5-20.2c12.2,6.8,32.5,11.7,65.2,12.3c97,2,107.1-150,107.9-194.5
				C1399.3,646.1,1403.8,814.3,1301.6,814.3z"/>
			<path id="_x3C_äÓÌÚÛ__x3E_" class="st3" d="M1397.3,599.8c0,0,5.7,209-107.9,206.7c-104-2.1-81.6-46.6-79.5-59.7
				c7.3-47.2,43.2-147,43.2-147S1294.3,614.5,1397.3,599.8z"/>
		</g>
		<g id="RIGHT_HAND-2">
			<path class="st5" d="M1485.1,561.7c-7.8,55.9-132.2,174.5-135.4,177.5l0.1,0.3c0,0-9.6,19-19.2,19s-18.5-5.2-23.5,0.2
				s-10.2,14-14.1,14.8c-4.6,1-9.5,0.4-13.7-1.8c0,0,3.3-8,6.7-15.7c-3.1,2.8-7.2,9.2-9.5,11.6c-3.5,3.7-6.6,0.3-6.6,0.3
				s6.7-12.8,9.3-16.2s10.4-8.5,14.7-10.2c4.7-2.5,29.9-16,45.3-20.1c19.2-38.8,65.6-129.7,92.2-157.8c0,0-44.3-111.2-46.4-142.7
				s8.4-58.3,25.4-50.7C1450.9,388.5,1488,540.3,1485.1,561.7z"/>
			<path class="st0" d="M1284.8,771.7c0,0,8.9-20.2,12-22.2c5.4-3.7,12.6-8.6,12.6-8.6"/>
			<path class="st0" d="M1290.2,772.6c0,0,8.5-17.2,11.6-19.3l12.6-8.6"/>
		</g>
		<g id="HEAD-3">
			<g id="HAIR-2">
				<path class="st4" d="M1227.4,209.9c0,0-40.1-10.1-52.3,19s20.5,35.4,19.3,51c-0.7,9.2,3.8,34.5,30.2,15.4
					c25.3-18.4,125,68.5,156.4,60s55-58,30.3-76.1s-39.7,7.1-48-0.8s-4.3-21.4-24.4-24.8c-18.2-3.1-26.3,13.8-26.3,13.8
					s11.6-55.6-18-72.1S1238.6,187.7,1227.4,209.9z"/>
				<path class="st0" d="M1411.9,272c-25.7-16.7-37.3,6.9-45.9-0.5s-7.4-19.9-27.7-22.2c-18.3-2.1-26.7,18.4-26.7,18.4"/>
			</g>
			<g id="NECK-2">
				<path class="st5" d="M1301.9,272.2c0,0,17.3,72.8,79.1,83c0,0-90.8,48-130.1,15.1c0,0,29.5-15.8,12.7-60.6L1301.9,272.2z"/>
				<path class="st4" d="M1300,274.5c2,7.2,5.1,66.6-34,77.1c3.6-9.5,4.6-23.2-2.3-41.9L1300,274.5z"/>
			</g>
			<path id="HEAD-4" class="st5" d="M1304.3,248.6c7.5,2.2,3.3,26.3-3.2,29.9c2,7.3-8.9,43.9-44.8,54.5c-10.2,3-31.4-26.7-35.6-36.6
				c-6.1-14.3-11.6-27.6-12.6-32.9c-1.7-8.6-2.1-28,22.6-32c21.6-3.5,28.6,40.7,63.6,25.3C1294.2,256.8,1296.7,246.3,1304.3,248.6z"
				/>
		</g>
	</g>
	<polyline class="st0" points="1231.1,274.5 1231.1,292.8 1239.3,296.4 	"/>
	<path class="st0" d="M1243.9,308c0,0,9.8,2.1,14.2-9.2"/>
	
		<ellipse transform="matrix(0.8969 -0.4423 0.4423 0.8969 8.7391 578.4482)" class="st4" cx="1244.8" cy="270.5" rx="3.1" ry="4.1"/>
	
		<ellipse transform="matrix(0.9457 -0.3251 0.3251 0.9457 -25.2661 412.4494)" class="st4" cx="1221.7" cy="281.8" rx="3.1" ry="4.1"/>
	<path class="st0" d="M1212.6,268c1.1-2.6,4-4.1,6.8-3.5"/>
	<circle class="st8" cx="1297" cy="259.9" r="14.6"/>
	<path class="st0" d="M1291.5,268.8c0,0-1.7-5.7-0.1-10.9c1.1-3.8,4.2-6.8,8.1-7.5"/>
	<line class="st0" x1="1299.5" y1="261.7" x2="1291.4" y2="257.9"/>
	<circle class="st1" cx="1307.8" cy="276.2" r="6.8"/>
	<path class="st0" d="M1235.3,258.1c0,0,1.9-6.6,10.3-4.5"/>
	<g id="TABLE">
		<polyline class="st1" points="1628,1253.6 1570.9,941.3 1618,934 1661.8,1253.6 		"/>
		<polygon class="st4" points="1570.9,941.3 1618,934 1622.6,970.3 1574.3,961.1 		"/>
		<polyline class="st1" points="195.7,1253.6 252.7,941.3 205.6,934 161.8,1253.6 		"/>
		<polygon class="st4" points="205.6,934 252.7,941.3 245.9,981.4 203.7,949.3 		"/>
		<ellipse class="st1" cx="911.3" cy="877.2" rx="797.3" ry="58.7"/>
		<path class="st1" d="M1708.6,877.2v31.2c0,32.4-357,58.7-797.3,58.7c-385.1,0-706.5-20.1-781-46.8c-10.7-3.8-16.3-7.8-16.3-11.9
			v-31.2c0,4.1,5.6,8,16.3,11.9c3.5,1.2,7.5,2.5,12,3.7c92.6,24.9,401.9,43.1,769,43.1s676.4-18.3,769-43.2
			C1698.8,887.8,1708.6,882.6,1708.6,877.2z"/>
		<path class="st1" d="M1231.3,930.8c-23.1,148.3-276.1,236.4-461.5,219c-227.5-21.5-349.6-131.2-400.2-191.2
			c-9-10.7-11-25.6-5.1-38.3c142.2,9.7,332.4,15.6,541.3,15.6C1021.8,935.9,1132,934.1,1231.3,930.8z"/>
		<path class="st1" d="M1468.1,834.3l-2.7,1.1l-234,95.3v0.2c-99.4,3.3-209.5,5.1-325.5,5.1c-209,0-399.1-5.9-541.3-15.6
			c3.8-8.3,10.7-14.8,19.2-18.2l195.6-78.3c0,0,5-0.2,14.4-0.6l0,0C673.6,819.7,1072.3,805.3,1468.1,834.3z"/>
	</g>
	<g id="BOWL">
		<path class="st1" d="M1138.7,690.3c-22.9,22.9-58.8,26.5-85.7,8.5c2.3-4.2,25.3,6.3,43.7-8.2
			C1129.4,664.8,1137.8,687.5,1138.7,690.3z"/>
		
			<rect x="1028.3" y="607.5" transform="matrix(0.6812 -0.7321 0.7321 0.6812 -140.5475 957.9882)" class="st1" width="3" height="65.8"/>
		<path class="st1" d="M1089.5,676.9c10.8,8.8,12.7,19.3,6.9,25.6c-5.2,5.6-17.5,4.3-26-5c-8.3-9.2-21.2-30.9-17.2-35.2
			S1079.9,669,1089.5,676.9z"/>
		<path class="st1" d="M1086.7,681.5c10,8.6,12.4,18,9.7,21c-2.2,2.4-13.3,0.5-21.6-8.1s-23.5-28.9-21-31.5
			S1077.8,673.8,1086.7,681.5z"/>
		<path class="st1" d="M981.7,591.2l24.4,24.5c1,1,1,2.5,0.1,3.6l0,0c-0.9,1-2.5,1.1-3.6,0.2L979,599.3c-3.1-2.9-8-2.8-11,0.4
			c0,0,0,0,0,0l0,0c-1.4-1.3-1.5-3.5-0.2-5c0,0,0,0,0,0l2.9-3.1C973.6,588.4,978.5,588.3,981.7,591.2
			C981.7,591.2,981.7,591.2,981.7,591.2z"/>
		<line class="st0" x1="1053.8" y1="662.8" x2="1096.4" y2="702.4"/>
		<path class="st0" d="M1167.4,637.8c0.1,42.5-34.3,77.1-76.9,77.1c0,0,0,0,0,0l0,0c-42.5,0.1-77.1-34.3-77.1-76.9c0,0,0,0,0,0
			L1167.4,637.8z"/>
	</g>
	<g id="ROLLING_PIN">
		<path class="st1" d="M698.6,895h-21.3c-3.2,0-5.8-2.6-5.8-5.8v-1.4c0-3.2,2.6-5.8,5.8-5.8h21.3c3.2,0,5.8,2.6,5.8,5.8v1.4
			C704.3,892.5,701.8,895,698.6,895z"/>
		<path class="st1" d="M890,915.4H712.9c-13.1,0-23.7-10.6-23.7-23.7v-6c0-13.1,10.6-23.7,23.7-23.7H890l0,0V915.4L890,915.4z"/>
		<ellipse class="st1" cx="890" cy="888.7" rx="21" ry="26.6"/>
		<path class="st1" d="M915.9,895h-21.3c-3.2,0-5.8-2.6-5.8-5.8v-1.4c0-3.2,2.6-5.8,5.8-5.8h21.3c3.2,0,5.8,2.6,5.8,5.8v1.4
			C921.7,892.5,919.1,895,915.9,895z"/>
	</g>
	<g id="PICTURE">
		<rect x="636.8" y="124.9" class="st4" width="146.7" height="146.7"/>
		<rect x="645.7" y="115.2" class="st1" width="146.7" height="146.7"/>
		<rect x="669.1" y="138.6" class="st1" width="100" height="100"/>
		<path class="st1" d="M719.6,166.2c0,0,2.7-9.1-3.7-11.9"/>
		<path class="st3" d="M733.1,180.5c0.6,3.4,1.9,6.7,3.8,9.6c6.6,9.9,3.9,23.2-5.9,29.8c-9.9,6.6-23.2,3.9-29.8-5.9
			c-4.8-7.1-4.8-16.4-0.2-23.6c2-3,3.3-6.3,4-9.9l0.1-0.8c0.2-0.9,0.2-1.8,0.3-2.7c0.6-6.4,5.9-11.2,12.3-11.2h2.6
			c6.4,0,11.7,4.9,12.3,11.2c0.1,0.9,0.2,1.8,0.3,2.7L733.1,180.5z"/>
		<path class="st1" d="M720.8,165.8c0,0-0.7-8.3,11.3-12.1C732.1,153.7,733.8,168.6,720.8,165.8z"/>
	</g>
	<g id="KITCHEN_SET">
		
			<rect x="274.6" y="593.1" transform="matrix(0.1582 -0.9874 0.9874 0.1582 -314.7999 820.4424)" class="st1" width="98.3" height="3.5"/>
		<path class="st1" d="M326.4,497.7l25.1,4c3.5,0.6,5.9,4,5.2,7.5c-0.1,0.3-0.1,0.6-0.2,0.9l-7.4,34.5c-0.9,3-3.9,5-7,4.5l-21.5-3.4
			c-3.1-0.5-5.4-3.3-5.3-6.5l3.8-35.1c0-3.6,2.9-6.5,6.4-6.5C325.8,497.7,326.1,497.7,326.4,497.7z"/>
		<line class="st0" x1="332.9" y1="537.6" x2="337.6" y2="508"/>
		<line class="st0" x1="325.6" y1="533.9" x2="329.5" y2="509.3"/>
		<line class="st0" x1="340.9" y1="536.4" x2="344.9" y2="511.7"/>
		<path class="st1" d="M304.7,684.4l8-39.9c0.3-1.6,1.8-2.7,3.5-2.4l0,0c1.6,0.2,2.7,1.7,2.5,3.3l-4.3,36.3c-0.8,5,2.6,9.7,7.5,10.5
			c0,0,0,0,0,0l0,0c-0.4,2.3-2.5,3.8-4.8,3.4l-4.9-0.8C307.3,694.1,303.9,689.5,304.7,684.4C304.7,684.5,304.7,684.5,304.7,684.4z"
			/>
		<path class="st1" d="M346.3,568.7c3.4-6.7,9.7-11.4,17.1-12.6c13.7-2.1,25.6,7.1,27.3,21l-45,8.2l-44.2,83.6
			c0.1,0.2,0.2,0.3,0.2,0.5c0.2,0.7,0.2,1.4-0.1,2.1l-14.6,30.7c-2.2,4.2-0.6,9.3,3.5,11.5c-0.5,0.9-1.3,1.6-2.3,1.9
			c-1,0.3-2,0.2-2.9-0.3l-4.1-2.2c-4.2-2.2-5.7-7.3-3.5-11.5l18.9-32.8c0.4-0.7,1.1-1.2,2-1.3l44.3-83.8h0.1
			C342.8,578.5,343.9,573.3,346.3,568.7z"/>
		
			<rect x="287.3" y="617.2" transform="matrix(0.4673 -0.8841 0.8841 0.4673 -368.6368 625.8337)" class="st1" width="95.4" height="3.2"/>
		<path class="st1" d="M403.6,569.3c-1.7-13.9-13.6-23.1-27.3-21l0,0c-13.7,2.1-21.9,15.8-20.2,29.7L403.6,569.3z"/>
		<path class="st1" d="M290.7,693.8l18.9-32.8c0.8-1.3,2.4-1.8,3.8-1.1l0,0c1.3,0.7,1.9,2.3,1.2,3.7L300,694.4
			c-2.2,4.2-0.6,9.3,3.5,11.5l0,0c-1,1.9-3.3,2.6-5.2,1.6c0,0,0,0,0,0l-4.1-2.2C290,703.1,288.5,698,290.7,693.8z"/>
		<path class="st1" d="M314.1,673.3L314.1,673.3l14,32.1l-2,1l-17.5-27.6c-0.8-1.3-2-2.2-3.5-2.6c-1.4-0.4-2.9-0.3-4.2,0.4
			c-2.7,1.4-3.9,4.6-2.7,7.5l11.8,30.5l-1.8,0.9l-17.7-30.2c-3.1-5.9-1.4-13.2,4-17.2l-41.4-81.2c-1.4,0-2.8-0.7-3.5-2l-17.3-30.6
			c-2-3.8-6.7-5.4-10.5-3.4l-0.9,0.5l-0.5-0.9c-1.2-2.5-0.3-5.5,2.2-6.7l4.3-2.2c4.8-2.5,10.7-0.5,13.2,4.3l0,0l16.5,35.5
			c0.6,1.3,0.4,2.9-0.5,4l41.4,81.1c2.8-1,5.9-1.1,8.7-0.1C309.7,667.6,312.5,670.1,314.1,673.3z"/>
		
			<rect x="278.4" y="569.7" transform="matrix(0.9288 -0.3706 0.3706 0.9288 -209.3848 147.8804)" class="st11" width="3.5" height="98.3"/>
		<path class="st1" d="M314.9,671.3l11.1,33.6l-0.4,0.2l-15.1-29.4c-0.8-1.6-2.2-2.9-3.9-3.5c-1.6-0.7-3.5-0.7-5.1,0
			c-3.4,1.4-5.2,5.2-4.1,8.7l9.1,31.8h-0.1l-15-32c-2.7-6.6,0.4-14.1,6.9-16.9c3.1-1.3,6.7-1.2,9.8,0.2
			C311.2,665.5,313.6,668.1,314.9,671.3z"/>
		<path class="st1" d="M250.6,532.2l13.6,38.4c0.6,1.5-0.2,3.2-1.7,3.8l0,0c-1.5,0.6-3.2-0.1-3.9-1.6l-15-33.4
			c-1.9-4.7-7.2-7-11.9-5.1l0,0c-0.8-2.1,0.2-4.5,2.3-5.4l4.6-1.8C243.4,525.2,248.7,527.5,250.6,532.2
			C250.5,532.2,250.5,532.2,250.6,532.2z"/>
		
			<rect x="297.5" y="553.8" transform="matrix(0.9808 -0.1953 0.1953 0.9808 -109.951 69.839)" class="st1" width="3.5" height="77.5"/>
		<path class="st1" d="M267.3,516.6c-4.2-15.8,1.1-27.2,11-29.2c8.8-1.8,19.8,8,21.4,22.7c1.6,14.5-1.1,44.1-7.8,45.5
			S271.1,530.7,267.3,516.6z"/>
		<path class="st1" d="M273.2,514.1c-3.7-15.1,0.5-25.8,5.2-26.7c3.8-0.8,13.1,8.7,15,22.7c1.9,13.7,2.5,43.8-1.6,44.6
			S276.4,527.6,273.2,514.1z"/>
		<path class="st1" d="M311.3,672.8l-6.4-40.2c-0.3-1.6,0.8-3.1,2.4-3.4l0,0c1.6-0.3,3.1,0.7,3.5,2.2l8.6,35.5c1,5,5.8,8.2,10.7,7.2
			c0,0,0,0,0,0l0,0c0.4,2.2-1,4.4-3.3,4.9l-4.9,1C317.1,681.1,312.3,677.8,311.3,672.8C311.3,672.9,311.3,672.9,311.3,672.8z"/>
		<line class="st0" x1="291.8" y1="554.7" x2="278.4" y2="487.4"/>
		<rect x="269" y="617.8" class="st1" width="75" height="97.7"/>
		<line class="st0" x1="269" y1="627.9" x2="344" y2="627.9"/>
		<line class="st0" x1="269" y1="637.6" x2="344" y2="637.6"/>
		<line class="st0" x1="269" y1="647.2" x2="344" y2="647.2"/>
		<line class="st0" x1="269" y1="656.9" x2="344" y2="656.9"/>
		<line class="st0" x1="269" y1="666.6" x2="344" y2="666.6"/>
		<line class="st0" x1="269" y1="676.2" x2="344" y2="676.2"/>
		<line class="st0" x1="269" y1="685.9" x2="344" y2="685.9"/>
		<line class="st0" x1="269" y1="695.5" x2="344" y2="695.5"/>
		<line class="st0" x1="269" y1="705.2" x2="344" y2="705.2"/>
	</g>
	<g id="EGGS">
		<g id="EGGS-2">
			<path class="st1" d="M1278.6,873.8c-11.3,6.4-22.8,6.6-28.1-5.2c-4.8-10.7,2.3-20.8,14.8-24.4c14.8-4.3,25-1.7,28.1,5.2
				C1296.7,856.6,1292,866.3,1278.6,873.8z"/>
			<ellipse class="st1" cx="1327.6" cy="868.2" rx="16.8" ry="24.4"/>
			<ellipse class="st1" cx="1370.5" cy="868.2" rx="16.8" ry="24.4"/>
		</g>
		<g id="PACK">
			<path class="st1" d="M1510.4,864.1l-13,31.6c-2,5-6.9,8.2-12.3,8.2H1371l16.3-39.9H1510.4z"/>
			<path class="st1" d="M1395.1,864.1l-12,31.6c-1.7,4.8-6.2,8.1-11.3,8.2h-2.1c-5.2-0.1-9.8-3.5-11.4-8.5l-2.9-8.1
				c-0.9-2.7-3.3-4.5-6.1-4.5l0,0c-2.8,0.1-5.2,1.9-6.1,4.5l-2.9,8.1c-1.6,5-6.2,8.4-11.4,8.5h-2.1c-5.1-0.1-9.7-3.4-11.4-8.2
				l-12-31.6H1395.1z"/>
			<path class="st1" d="M1553,836.8l-6.6,16.6c-2.7,6.5-9,10.7-15.9,10.7h-135.1l21.2-51.8h130.7l4.6,7.5
				C1554.9,825,1555.3,831.3,1553,836.8z"/>
			<path class="st1" d="M1422.3,836.8l-6.6,16.6c-2.7,6.5-9,10.7-15.9,10.7h-4.4l21.2-51.8l0,0l4.6,7.5
				C1424.2,825,1424.6,831.3,1422.3,836.8z"/>
		</g>
	</g>
	<g id="CUPCAKES">
		<path class="st1" d="M419.8,901.8h-15.7c-4.9,0-9.1-3.5-10-8.3l-6.3-32.2h48.3l-6.3,32.2C428.9,898.3,424.7,901.8,419.8,901.8z"/>
		<path class="st1" d="M439.9,859.3c0,6.1-12.5,7-28,7s-28,0-28-7c0-8,12.5-9.8,28-9.8S439.9,852.3,439.9,859.3z"/>
		<path class="st1" d="M430.1,846.9c0,6.1-8.2,9.4-18.3,9.4s-18.3-2.4-18.3-9.4c0-4.6,4.6-7.8,11.2-9.1l0,0c0.4-0.1,7.1-2,7.1-6
			c0-4.5-5.5-5.7-5.5-5.7s14.3-3.6,12.7,11.7C425.5,839.3,430.1,842.7,430.1,846.9z"/>
		<path class="st1" d="M405.3,845.4c1.4,1.3,1.9,2.9,1.3,3.7s-2.4,0.3-3.8-1s-2-2.9-1.3-3.7S403.9,844.2,405.3,845.4z"/>
		<path class="st1" d="M409.9,858.6c1.8,0.5,3,1.8,2.7,2.8s-2,1.3-3.8,0.8s-3-1.8-2.7-2.8S408.1,858,409.9,858.6z"/>
		<path class="st1" d="M417.6,849.8c-1.6,1-3.3,1.1-3.9,0.3s0.3-2.4,1.9-3.4s3.3-1.1,3.9-0.3S419.2,848.8,417.6,849.8z"/>
		<path class="st1" d="M412.1,842.6c-1.6,1-3.2,1.3-3.6,0.7s0.6-1.9,2.2-2.9s3.2-1.3,3.6-0.7S413.7,841.6,412.1,842.6z"/>
		<path class="st1" d="M426.7,857.3c-1.6,1-3.2,1.3-3.6,0.7s0.6-1.9,2.2-2.9s3.2-1.3,3.6-0.7S428.3,856.3,426.7,857.3z"/>
		
			<ellipse transform="matrix(0.2024 -0.9793 0.9793 0.2024 -524.1516 1071.7217)" class="st1" cx="395.9" cy="857.7" rx="1.3" ry="3.4"/>
		<path class="st1" d="M289,874.4h-14.4c-4.7,0-8.7-3.3-9.6-7.9l-5.9-30h45.3l-5.9,30C297.8,871.1,293.7,874.4,289,874.4z"/>
		<path class="st1" d="M305.6,835.9c0,5.7-9.2,8.8-23.7,8.8s-24.8-2.2-24.8-8.8c0-7.5,10.3-9.9,24.8-9.9S305.6,829.3,305.6,835.9z"
			/>
		<path class="st1" d="M279.1,834.1c-5.7,0.1-12.4,0.1-15-6.1c-3.1-7.3,6.2-14.9,16.2-11c2.8,1.1,4.8,1.5,6.3-0.8
			c1.6-2.5-1.3-6.1-5.4-4.8c0,0,6.2-2.8,10.7,1.2C298.8,818.5,300.1,833.9,279.1,834.1z"/>
		<path class="st1" d="M277.4,830.9c-1.7-0.4-3-1.2-2.9-1.8s1.6-0.9,3.4-0.5s3,1.2,2.9,1.8S279.1,831.3,277.4,830.9z"/>
		<path class="st1" d="M272.3,824.9c-0.9,1.5-2.1,2.5-2.6,2.2s-0.3-1.8,0.6-3.4s2.1-2.5,2.6-2.2S273.2,823.3,272.3,824.9z"/>
		<path class="st1" d="M294.1,834.7c-0.9,1.5-2.1,2.5-2.6,2.2s-0.3-1.8,0.6-3.4s2.1-2.5,2.6-2.2S294.9,833.2,294.1,834.7z"/>
		<path class="st1" d="M281,824.4c-1.5,0.9-3,1.2-3.4,0.7s0.6-1.7,2.1-2.7s3-1.2,3.4-0.7S282.5,823.4,281,824.4z"/>
		<path class="st1" d="M283.8,838.3c-1.5,0.9-3,1.2-3.3,0.7s0.6-1.8,2.1-2.7s3-1.2,3.4-0.7S285.3,837.4,283.8,838.3z"/>
		<path class="st1" d="M286.3,827.9c-1.7-0.3-3-1.2-2.9-1.8s1.6-0.9,3.4-0.5s3,1.2,2.9,1.8S288,828.3,286.3,827.9z"/>
		<path class="st1" d="M267.9,836.9c-1.7-0.4-3-1.2-2.9-1.8s1.6-0.9,3.4-0.5s3,1.2,2.9,1.8S269.6,837.3,267.9,836.9z"/>
		<path class="st1" d="M351.6,874.4h-15.4c-4.4,0-8.2-3.1-9-7.4l-6-30.5h45.3l-6,30.5C359.7,871.3,356,874.4,351.6,874.4z"/>
		<path class="st1" d="M370.2,835.9c0,5.7-11.8,8.8-26.3,8.8s-26.3-2.2-26.3-8.8c0-7.5,11.8-9.2,26.3-9.2S370.2,829.3,370.2,835.9z"
			/>
		<path class="st1" d="M343.2,835.6c-4.9,0.2-15.6,0-16.9-6.6c-1.5-7.6,8.6-11.4,15.5-9.8c2.9,0.7,9.8,1.5,10.5-1.3
			c0.6-2.4-0.5-4.1-3.3-3.7c0,0,4.4-6.3,10-0.8C366.3,820.4,366.1,834.7,343.2,835.6z"/>
		<path class="st1" d="M345,823c1.3,1.2,1.8,2.7,1.2,3.4s-2.2,0.3-3.5-0.9s-1.8-2.7-1.2-3.4S343.7,821.8,345,823z"/>
		<path class="st1" d="M341,829.5c1.7,0.5,2.8,1.7,2.6,2.6s-1.9,1.2-3.6,0.7s-2.8-1.7-2.6-2.6S339.3,829,341,829.5z"/>
		<path class="st1" d="M336.6,827c-1.5,0.9-3,1.2-3.4,0.7s0.6-1.8,2.1-2.7s3-1.2,3.3-0.7S338.1,826.1,336.6,827z"/>
		<path class="st1" d="M346.7,839.3c-1.7,0.4-3.2,0.2-3.4-0.4s1.1-1.5,2.8-1.9s3.2-0.2,3.4,0.4S348.4,838.9,346.7,839.3z"/>
		<path class="st1" d="M351.8,830.7c-1.5,0.9-3,1.2-3.4,0.7s0.6-1.8,2.1-2.7s3-1.2,3.3-0.7S353.3,829.8,351.8,830.7z"/>
		<path class="st1" d="M353.7,824.5c-1.7-0.4-3-1.2-2.9-1.8s1.6-0.9,3.4-0.5s3,1.2,2.9,1.8S355.4,824.9,353.7,824.5z"/>
		<path class="st1" d="M329.8,837.5c-1.6-0.8-2.6-1.9-2.4-2.5s1.8-0.5,3.4,0.3s2.6,1.9,2.4,2.5S331.4,838.3,329.8,837.5z"/>
		<path class="st1" d="M356.8,837c-1.6-0.8-2.6-1.9-2.4-2.5s1.8-0.5,3.4,0.3s2.6,1.9,2.4,2.5S358.4,837.7,356.8,837z"/>
	</g>
	<g id="BERRIES">
		<path class="st1" d="M670.6,848.1c0.4,0.2,0.6,0.7,0.4,1.1c-0.1,0.2-0.3,0.4-0.5,0.4c-28.3,8.1-63,12.9-100.4,12.9
			s-72.3-4.8-100.7-13c-0.5-0.1-0.7-0.6-0.6-1.1c0.1-0.2,0.2-0.4,0.4-0.5c9.2-6.1,65.4-8,100.9-8C604.9,840,660.2,843.3,670.6,848.1
			z"/>
		<path class="st1" d="M592.1,842.3c0,0,14.8-2.3,11-16.7"/>
		<circle class="st6" cx="589.1" cy="847.7" r="8"/>
		<path class="st1" d="M611.5,842.4c0,0-7.5-3.5-7.8-10.5"/>
		<circle class="st6" cx="613.1" cy="847.2" r="6.6"/>
		<path class="st1" d="M528.4,865.2c0,0,14.8-2.3,11-16.7"/>
		<circle class="st1" cx="525.5" cy="870.5" r="8"/>
		<path class="st1" d="M547.8,865.2c0,0-7.5-3.5-7.8-10.5"/>
		<circle class="st1" cx="549.4" cy="870.1" r="6.6"/>
		<path class="st1" d="M577.4,862.9c0,0,14.6,4.3,20.8-9.1"/>
		<circle class="st6" cx="572.1" cy="862.8" r="8"/>
		<path class="st1" d="M600.3,874.2c0,0,14.6,4.3,20.8-9.1"/>
		<circle class="st1" cx="595" cy="874.1" r="8"/>
		<circle class="st12" cx="633.7" cy="873.3" r="8"/>
		<path class="st1" d="M605.3,855.3c0,0-6.6-4.9-5.6-11.8"/>
		<circle class="st6" cx="605.9" cy="860.3" r="6.6"/>
		<path class="st1" d="M643.7,854.3c0,0-8.1-1.2-10.5-7.8"/>
		<circle class="st6" cx="646.6" cy="858.4" r="6.6"/>
		<path class="st1" d="M514.1,850.4c0,0-7.3-5-6.6-12.5"/>
		<circle class="st13" cx="515" cy="855.8" r="7.1"/>
		<circle class="st6" cx="622.7" cy="857.4" r="5"/>
		<circle class="st6" cx="530.4" cy="853.8" r="5"/>
		<circle class="st6" cx="492" cy="856.7" r="6.9"/>
		<path class="st1" d="M574.3,876.1c-0.6,2.7,1,5.4,3.7,6s5.4-1,6-3.7c0.6-2.7-1-5.4-3.7-6c0,0,0,0,0,0
			C577.6,871.7,574.9,873.4,574.3,876.1z"/>
		<circle class="st6" cx="553.5" cy="853" r="6.6"/>
		<circle class="st1" cx="504.9" cy="867.6" r="6.6"/>
		<circle class="st1" cx="563.3" cy="879.5" r="6.6"/>
		<path class="st14" d="M671.1,849.5c-0.6,22.5-44.9,39.8-101,39.8s-100.4-17.8-101-40.2c28.7,8.4,62.8,13,101,13
			S642.4,857.9,671.1,849.5z"/>
		<path class="st1" d="M671.1,849.5c-0.6,22.5-44.9,39.8-101,39.8s-100.4-17.8-101-40.2c28.7,8.4,62.8,13,101,13
			S642.4,857.9,671.1,849.5z"/>
	</g>
	<g id="RECIPES">
		<path class="st1" d="M959,771.3l6.9-5.4c0,0,57.4-9.3,75.3-6.6c17.8,2.6,15.8,12,15.8,12H959z"/>
		<path class="st1" d="M1057,771.3c0,0,9.4-9.4,42.1-9.7c20.2-0.1,40.2,3.2,59.3,9.7H1057z"/>
		<path class="st15" d="M1110.1,904H1001l-53.1-132.7h96.7c1.2,0,2.2,0.7,2.6,1.8l0.7,1.8h10.6L1110.1,904z"/>
		<path class="st15" d="M1225.9,904h-115.8l-51.7-129.3c-0.5-1.3,0.1-2.8,1.4-3.3c0.3-0.1,0.6-0.2,0.9-0.2h112.1L1225.9,904z"/>
		<path class="st15" d="M1109.1,907.5h-7c-0.7,0-1.3-0.4-1.6-1.1l-1-2.5l-51.6-129.1h10.7l52.1,130.3c0.4,0.9-0.1,1.9-1,2.2
			C1109.5,907.5,1109.3,907.5,1109.1,907.5z"/>
		<line class="st0" x1="1061.9" y1="814.6" x2="1046.1" y2="909.2"/>
		<line class="st0" x1="1094.3" y1="910" x2="999.7" y2="910"/>
	</g>
	<g id="SHELF">
		<g id="SHELF-2">
			<polygon class="st1" points="251.2,397 225.4,397 225.4,411.2 251.2,406.8 			"/>
			<line class="st0" x1="250.8" y1="441" x2="966.5" y2="441"/>
			<rect x="205.2" y="371.2" class="st1" width="807.7" height="25.9"/>
			<rect x="225.4" y="397" class="st1" width="25.9" height="43.9"/>
			<polygon class="st1" points="993.1,397 967.2,397 967.2,411.2 993.1,406.8 			"/>
			<rect x="967.2" y="397" class="st1" width="25.8" height="43.9"/>
		</g>
		<g id="DISHES">
			<path class="st1" d="M825.6,311.2h120.5c0,5.2-4.2,9.4-9.4,9.4l0,0H835C829.8,320.6,825.6,316.4,825.6,311.2L825.6,311.2
				L825.6,311.2z"/>
			<path class="st1" d="M814.5,332h142.7c0,6.1-5,11.1-11.1,11.1H825.6C819.5,343.1,814.5,338.2,814.5,332z"/>
			<path class="st1" d="M799.3,356.1h173.1c0,7.4-6,13.5-13.5,13.5H812.8C805.4,369.6,799.3,363.6,799.3,356.1L799.3,356.1z"/>
			<path class="st1" d="M809,301.5h153.7c0.9,0,1.6,0.7,1.6,1.6c0,0.7-0.4,1.3-1.1,1.6l-16.3,6H824.7l-16.3-6
				c-0.8-0.3-1.3-1.2-1-2.1C807.7,301.9,808.3,301.5,809,301.5z"/>
			<path class="st1" d="M824.7,310.6H947c0,5.3-4.3,9.5-9.5,9.5l0,0H834.3C829,320.1,824.8,315.8,824.7,310.6L824.7,310.6
				L824.7,310.6z"/>
			<path class="st1" d="M794.8,320.2h182.1c1.1,0,1.9,0.9,1.9,1.9c0,0.8-0.5,1.5-1.3,1.8l-19.3,7H813.5l-19.3-7
				c-1-0.4-1.5-1.5-1.1-2.5C793.3,320.7,794,320.2,794.8,320.2z"/>
			<path class="st1" d="M813.5,331h144.8c0,6.2-5,11.3-11.3,11.3H824.8C818.5,342.2,813.5,337.2,813.5,331z"/>
			<path class="st1" d="M775.5,342.3h220.8c1.3,0,2.3,1.1,2.3,2.4c0,1-0.6,1.8-1.5,2.2l-23.4,8.5H798.1l-23.4-8.5
				c-1.2-0.5-1.8-1.8-1.4-3C773.6,342.9,774.5,342.3,775.5,342.3z"/>
			<path class="st1" d="M798.1,355.4h175.6c0,7.5-6.1,13.7-13.7,13.7l0,0H811.7C804.2,369.1,798.1,363,798.1,355.4z"/>
		</g>
		<g id="CUPS">
			<path class="st1" d="M563.6,334.2c0,15.7,10.6,28.4,23.7,28.4s23.7-12.7,23.7-28.4H563.6z"/>
			<path class="st1" d="M595.8,369.5c0-3.8-3.1-6.9-6.9-6.9c0,0,0,0,0,0h-3.3c-3.8,0-6.9,3.1-6.9,6.9H595.8z"/>
			<path class="st0" d="M610.8,334.2c1.7-2.9,5.3-4.1,8.4-2.7c3.5,1.6,5.1,5.7,3.6,9.2c-1.5,3.7-11.2,7.3-15.2,8.5"/>
			<path class="st1" d="M631.1,334.2c0,15.7,10.6,28.4,23.7,28.4s23.7-12.7,23.7-28.4H631.1z"/>
			<path class="st1" d="M663.3,369.5c0-3.8-3.1-6.9-6.9-6.9l0,0h-3.3c-3.8,0-6.9,3.1-6.9,6.9l0,0H663.3z"/>
			<path class="st0" d="M678.3,334.2c1.7-2.9,5.3-4.1,8.4-2.7c3.5,1.6,5.1,5.7,3.6,9.2c-1.5,3.7-11.2,7.3-15.2,8.5"/>
			<path class="st1" d="M698.6,334.2c0,15.7,10.6,28.4,23.7,28.4s23.7-12.7,23.7-28.4H698.6z"/>
			<path class="st1" d="M730.8,369.5c0-3.8-3.1-6.9-6.9-6.9l0,0h-3.3c-3.8,0-6.9,3.1-6.9,6.9l0,0H730.8z"/>
			<path class="st0" d="M745.8,334.2c1.7-2.9,5.3-4.1,8.4-2.7c3.5,1.6,5.1,5.7,3.6,9.2c-1.5,3.7-11.2,7.3-15.2,8.5"/>
		</g>
		<g id="TEAPOT">
			<path class="st1" d="M508.3,307.1c3.5-10.1,14.6-16.6,27.1-13.7s20.1,16.1,17,29.5s-37.2,29.7-50.4,36"/>
			<path class="st1" d="M408.9,355.5c-14,0-19.2-11.1-25-25.4c-5.5-13.7-13.8-31.5-27.2-37.4h17.5l28.9,19.2L408.9,355.5z"/>
			<path class="st1" d="M481.2,289.8h-48.2c2.4-7.4,12.3-12.9,24.1-12.9S478.8,282.4,481.2,289.8z"/>
			<circle class="st1" cx="458.2" cy="270.8" r="6.1"/>
			<path class="st1" d="M439,289.4h36.4c22,0,39.9,17.9,39.9,39.9l0,0c0,22-17.9,39.9-39.9,39.9H439c-22,0-39.9-17.9-39.9-39.9l0,0
				C399.1,307.3,416.9,289.4,439,289.4z"/>
			<circle class="st1" cx="430.2" cy="296.4" r="4"/>
			<circle class="st1" cx="443.5" cy="296.4" r="4"/>
			<path class="st1" d="M420.8,296.4c0.1,2.2-1.7,4-3.9,4.1c-1.4,0-2.7-0.7-3.5-1.9c2.1-1.7,4.3-3.2,6.7-4.5
				C420.5,294.8,420.8,295.6,420.8,296.4z"/>
			<circle class="st1" cx="456.9" cy="296.4" r="4"/>
			<circle class="st1" cx="470.2" cy="296.4" r="4"/>
			<circle class="st1" cx="483.5" cy="296.4" r="4"/>
			<path class="st1" d="M500.8,298.7c-1.2,1.9-3.7,2.4-5.5,1.2c-1.2-0.8-1.9-2.1-1.8-3.5c0-0.8,0.2-1.6,0.7-2.2
				C496.5,295.4,498.7,296.9,500.8,298.7z"/>
			<ellipse transform="matrix(0.1602 -0.9871 0.9871 0.1602 52.6895 676.4672)" class="st1" cx="423.9" cy="307.3" rx="4" ry="4"/>
			<circle class="st1" cx="437.2" cy="307.3" r="4"/>
			<circle class="st1" cx="450.5" cy="307.3" r="4"/>
			<circle class="st1" cx="463.7" cy="307.3" r="4"/>
			<circle class="st1" cx="477" cy="307.3" r="4"/>
			<circle class="st1" cx="490.3" cy="307.3" r="4"/>
			<circle class="st1" cx="503.6" cy="307.3" r="4"/>
			<circle class="st1" cx="410.6" cy="307.3" r="4"/>
			<ellipse transform="matrix(0.1602 -0.9871 0.9871 0.1602 36.4368 679.0645)" class="st1" cx="417.3" cy="318.1" rx="4" ry="4"/>
			<circle class="st1" cx="430.6" cy="318.1" r="4"/>
			<circle class="st1" cx="443.8" cy="318.1" r="4"/>
			<circle class="st1" cx="457.1" cy="318.1" r="4"/>
			<circle class="st1" cx="470.4" cy="318.1" r="4"/>
			<circle class="st1" cx="483.7" cy="318.1" r="4"/>
			<circle class="st1" cx="497" cy="318.1" r="4"/>
			<circle class="st1" cx="510.2" cy="318.1" r="4"/>
			<circle class="st1" cx="404" cy="318.1" r="4"/>
			<ellipse transform="matrix(0.1602 -0.9871 0.9871 0.1602 31.2599 694.6996)" class="st1" cx="423.9" cy="329" rx="4" ry="4"/>
			<circle class="st1" cx="437.2" cy="329" r="4"/>
			<circle class="st1" cx="450.5" cy="329" r="4"/>
			<circle class="st1" cx="463.7" cy="329" r="4"/>
			<circle class="st1" cx="477" cy="329" r="4"/>
			<circle class="st1" cx="490.3" cy="329" r="4"/>
			<circle class="st1" cx="503.6" cy="329" r="4"/>
			<circle class="st1" cx="410.6" cy="329" r="4"/>
			<ellipse transform="matrix(0.1602 -0.9871 0.9871 0.1602 15.0072 697.2969)" class="st1" cx="417.3" cy="339.8" rx="4" ry="4"/>
			<circle class="st1" cx="430.6" cy="339.8" r="4"/>
			<circle class="st1" cx="443.8" cy="339.8" r="4"/>
			<circle class="st1" cx="457.1" cy="339.8" r="4"/>
			<circle class="st1" cx="470.4" cy="339.8" r="4"/>
			<circle class="st1" cx="483.7" cy="339.8" r="4"/>
			<circle class="st1" cx="497" cy="339.8" r="4"/>
			<circle class="st1" cx="510.2" cy="339.8" r="4"/>
			<circle class="st1" cx="404" cy="339.8" r="4"/>
			<ellipse transform="matrix(0.1602 -0.9871 0.9871 0.1602 9.8302 712.9321)" class="st1" cx="423.9" cy="350.7" rx="4" ry="4"/>
			<circle class="st1" cx="437.2" cy="350.7" r="4"/>
			<circle class="st1" cx="450.5" cy="350.7" r="4"/>
			<circle class="st1" cx="463.7" cy="350.7" r="4"/>
			<circle class="st1" cx="477" cy="350.7" r="4"/>
			<circle class="st1" cx="490.3" cy="350.7" r="4"/>
			<circle class="st1" cx="503.6" cy="350.7" r="4"/>
			<circle class="st1" cx="410.6" cy="350.7" r="4"/>
			<path class="st1" d="M421.3,361.5c0,1.1-0.4,2.2-1.2,2.9c-2.3-1.2-4.5-2.7-6.5-4.4c0.7-2.1,3-3.2,5.1-2.4
				C420.3,358.2,421.4,359.8,421.3,361.5z"/>
			<circle class="st1" cx="430.5" cy="361.5" r="4"/>
			<circle class="st1" cx="443.8" cy="361.5" r="4"/>
			<circle class="st1" cx="457.1" cy="361.5" r="4"/>
			<circle class="st1" cx="470.4" cy="361.5" r="4"/>
			<circle class="st1" cx="483.6" cy="361.5" r="4"/>
			<path class="st1" d="M500.7,360.1c-2,1.7-4.2,3.1-6.5,4.4c-1.6-1.6-1.5-4.1,0-5.7s4.1-1.5,5.7,0
				C500.2,359.2,500.5,359.6,500.7,360.1z"/>
		</g>
		<g id="OVEN_MITT">
			<path class="st1" d="M901.4,473c-1.2-1.4-2.9-2.4-4.7-2.8l-29.8-6.3l-6.4-7l-40.8,37.4l36.5,39.9c12.4,13.5,31.5,16.9,43,7.1
				c6-5.2,8.8-12.9,8.3-21c-0.6-8.6-4.2-16.7-10.1-23l-5.9-6.4c-1.5-1.7-1.2-4.1,0.7-4.7l8.5-2.5c0.6-0.2,1.1-0.5,1.6-0.9
				C904.5,480.5,904.3,476.2,901.4,473z"/>
			<line class="st0" x1="866.4" y1="463.6" x2="825.6" y2="500.9"/>
			<line class="st0" x1="874" y1="465.3" x2="829.9" y2="505.7"/>
			<line class="st0" x1="882.3" y1="467.2" x2="834.7" y2="510.8"/>
			<line class="st0" x1="889.9" y1="468.9" x2="839.4" y2="515.2"/>
			<line class="st0" x1="897.5" y1="471" x2="843.7" y2="520.3"/>
			<line class="st0" x1="902.6" y1="475.5" x2="848.1" y2="525.4"/>
			<line class="st0" x1="893.7" y1="493.1" x2="852.8" y2="530.6"/>
			<line class="st0" x1="898.4" y1="497.8" x2="857.6" y2="535.3"/>
			<line class="st0" x1="902" y1="502.9" x2="861.9" y2="539.6"/>
			<line class="st0" x1="905.2" y1="508.5" x2="867.8" y2="542.8"/>
			<line class="st0" x1="906.9" y1="515.5" x2="874.1" y2="545.6"/>
			<line class="st0" x1="907.5" y1="523.7" x2="882.4" y2="546.7"/>
			<path class="st1" d="M854.5,441.5c0.1,2.3,4.7,9.5,4.7,9.5s3.9-7.5,3.8-9.9c-0.1-2.3-2.1-4.2-4.4-4.1S854.4,439.1,854.5,441.5z"
				/>
			<path class="st1" d="M857.8,452.1L815.3,491c-0.7,0.7-0.8,1.8-0.1,2.6l3,3.3c0.7,0.7,1.8,0.8,2.6,0.1l42.5-38.9
				c0.7-0.7,0.8-1.8,0.1-2.6l-3-3.3C859.7,451.5,858.6,451.4,857.8,452.1C857.8,452.1,857.8,452.1,857.8,452.1z"/>
		</g>
		<g id="PAPER_TOWELS">
			<rect x="634.8" y="444.9" class="st1" width="96.7" height="65.5"/>
			<path class="st1" d="M731.4,442.2c0,14.3-6.6,25.9-14.7,25.9s-14.7-11.6-14.7-25.9s6.6-25.9,14.7-25.9S731.4,427.9,731.4,442.2z"
				/>
			<path class="st1" d="M724.3,442.2c0,6.2-2.8,11.3-6.4,11.3s-6.4-5-6.4-11.3s2.9-11.3,6.4-11.3S724.3,436,724.3,442.2z"/>
			<path class="st1" d="M716.8,468.1h-96.7c-8.1,0-14.7-11.6-14.7-25.9s6.6-25.9,14.7-25.9h96.7c-8.1,0-14.7,11.6-14.7,25.9
				S708.7,468.1,716.8,468.1z"/>
			<line class="st0" x1="733.7" y1="441" x2="712.6" y2="441"/>
		</g>
		<g id="PLANT">
			<path class="st1" d="M251.8,318.6h82.9l0,0v9.6c0,22.9-18.6,41.5-41.5,41.5l0,0c-22.9,0-41.5-18.6-41.5-41.5l0,0L251.8,318.6
				L251.8,318.6L251.8,318.6z"/>
			<path class="st1" d="M289.1,318.6c0,0,3.3-59.2,23.4-87.1"/>
			<path class="st3" d="M296.3,271.3c0,0,3.4-25.8,28.3-27.3C324.6,244.1,328.1,271.8,296.3,271.3z"/>
			<path class="st3" d="M300.5,255.6c0,0,14.1-27.7-7.2-38.5C293.3,217,280.7,243,300.5,255.6z"/>
			<path class="st3" d="M246.1,277.1c0,0-1.3-31.1-25.2-30C220.9,247.1,222.7,275.9,246.1,277.1z"/>
			<path class="st3" d="M291.3,297.6c0,0,9.8-31.5-12.1-42C279.2,255.6,268,286.9,291.3,297.6z"/>
			<path class="st3" d="M290.3,309.9c0,0-3.2-29.1,22.3-33.3C312.6,276.6,318.3,305.7,290.3,309.9z"/>
			<path class="st3" d="M311.8,232.3c0,0-3.2-29,22.3-33.3C334.1,199,339.7,228.1,311.8,232.3z"/>
			<line class="st0" x1="245.5" y1="276.6" x2="276.5" y2="318.6"/>
			<path class="st3" d="M260.3,296.6c0,0-14.5-18.7-6.4-38.9C253.9,257.7,271.8,271.3,260.3,296.6z"/>
			<path class="st3" d="M262.7,299.8c0,0-17.1,11.6-33.4-9.8C229.3,290,248.8,281,262.7,299.8z"/>
			<path class="st3" d="M276.5,318.5c0,0-13.6,12.8-31.2-3.8C245.3,314.6,261.4,303.7,276.5,318.5z"/>
			<path class="st3" d="M276.5,318.6c0,0-12.6-14.4-3.6-29.2C272.9,289.4,287.3,303.8,276.5,318.6z"/>
			<path class="st3" d="M312.5,318.6c0,0,3.6-21.3,22.9-23.9C335.4,294.6,338.7,318.6,312.5,318.6z"/>
		</g>
	</g>
	<g id="CAKE">
		<g id="CAKE-2">
			<path class="st1" d="M726.1,660.8h186.1c11,0,20,9,20,20v64.6l0,0H706.1l0,0v-64.6C706.1,669.7,715,660.8,726.1,660.8
				C726.1,660.8,726.1,660.8,726.1,660.8z"/>
			<path class="st1" d="M893.7,626.6v34.2H748.1v-34.2c0-8.8,7.1-15.9,15.9-15.9c0,0,0,0,0,0h113.7c8.3,0,15.2,6.3,15.9,14.6
				C893.7,625.7,893.7,626.2,893.7,626.6z"/>
			<path class="st3" d="M922.3,663.1v21.8c0,7.6-6.1,13.7-13.7,13.7c-7.6,0-13.7-6.1-13.7-13.7v-2.6c-0.6-7.7-7.3-13.5-15-12.9
				c-6.9,0.5-12.4,6-12.9,12.9V713c0,8.9-7.2,16.1-16.1,16.1c-8.9,0-16-7.2-16.1-16.1v-19.7c0-5.6-4.5-10.1-10.1-10.1h0h-0.3
				c-5.4,0-9.8,4.4-9.8,9.8v10.6c0.2,6.9-5.2,12.6-12.1,12.8s-12.6-5.2-12.8-12.1c0-0.2,0-0.5,0-0.7v-25.6c0-5.6-4.5-9.3-10.1-9.3
				h-0.3c-5.4,0-9.8,3.6-9.8,9v19.5c0,5.6-4.6,10.2-10.2,10.2h-0.3c-5.5,0-9.9-4.4-9.9-9.9l0,0v-4.1c0-8-6.5-14.5-14.5-14.5
				s-14.5,6.5-14.5,14.5V705c0,7.2-5.8,13.1-13.1,13.1v-38.7c0-9.6,7.8-17.4,17.4-17.4H916C918.1,661.9,920.3,662.3,922.3,663.1z"/>
			<path class="st1" d="M770.5,731.2c0,0,15.5-2.6,13-17.2"/>
			<circle class="st6" cx="767.1" cy="736.2" r="8"/>
			<path class="st1" d="M789.9,732.9c0,0-7.1-4.1-6.9-11.1"/>
			<circle class="st6" cx="791.1" cy="737.8" r="6.6"/>
			<path class="st1" d="M931.1,717.7c-1.9,0-3.4-1.5-3.4-3.4v-4c0.1-1.9,1.7-3.3,3.5-3.2c1.7,0.1,3.1,1.5,3.2,3.2v4
				C934.4,716.2,932.9,717.7,931.1,717.7z"/>
			<path class="st1" d="M886.5,690.6c-2.2,0-4-1.7-4-3.9c0,0,0,0,0-0.1v-3.9c0.3-2.2,2.4-3.7,4.6-3.3c1.7,0.3,3,1.6,3.3,3.3v3.9
				C890.4,688.8,888.7,690.6,886.5,690.6z"/>
			<path class="st1" d="M715.8,733.3c-2.2,0-3.9-1.8-4-3.9c0,0,0,0,0,0v-3.9c-0.1-2.2,1.6-4,3.7-4.1c2.2-0.1,4,1.6,4.1,3.7
				c0,0.1,0,0.3,0,0.4v4C719.8,731.5,718,733.3,715.8,733.3C715.8,733.3,715.8,733.3,715.8,733.3z"/>
			<path class="st3" d="M748.1,625.3c0.3,1.9,1.2,3.6,2.7,4.9c1.8,1.6,4.2,2.4,6.6,2.4c5.1,0,9.3-3.7,9.3-8.2v-1.5
				c0-2.3,1-4.4,2.8-5.9c1.9-1.6,4.2-2.5,6.7-2.4c5.2,0,9.5,3.7,9.5,8.3v18.2c0,2.6,1.2,5.1,3.2,6.8c2.1,1.8,4.9,2.8,7.7,2.8
				c6,0,10.9-4.3,10.9-9.5v-11.7c0-3.3,3.1-6,6.8-6h0.2c3.7,0,6.6,2.6,6.6,5.8v6.3c0,2,0.9,3.9,2.5,5.2c1.7,1.4,3.8,2.2,6,2.2
				c4.6,0,8.4-3.3,8.4-7.4v-15.2c0-3.3,3.1-5.5,6.8-5.5h0.2c3.7,0,6.6,2.2,6.6,5.4v11.6c0,3.3,3.1,6.1,6.9,6.1h0.2
				c3.7,0,6.7-2.6,6.7-5.9v-2.5c0-2.4,1-4.6,2.8-6.1c1.9-1.7,4.4-2.5,6.9-2.5c5.4,0,9.8,3.9,9.8,8.6v6.9c0,2.1,1,4.1,2.6,5.5
				c1.7,1.5,4,2.3,6.2,2.3v-17.5c0-8.8-7.1-15.9-15.9-15.9c0,0,0,0,0,0H764C755.7,610.7,748.8,617,748.1,625.3z"/>
			<path class="st1" d="M860.7,648.3c0,0,13.5-2.2,11.3-15"/>
			<circle class="st6" cx="857.7" cy="652.8" r="7"/>
			<path class="st1" d="M877.6,649.9c0,0-6.2-3.6-6-9.7"/>
			<path class="st6" d="M872.9,653.5c-0.4,3.1,1.9,6,5.1,6.3c3.1,0.4,6-1.9,6.3-5.1c0.4-3.1-1.9-6-5-6.3
				C876.1,648.1,873.3,650.4,872.9,653.5C872.9,653.5,872.9,653.5,872.9,653.5z"/>
			<path class="st3" d="M962.1,503.8c-4.1,1.2-8.1,3-11.7,5.3c-10,6.2-12.5,17.6-14.5,28.7c-2.3,12.7-1.8,47.2-1.3,61.4
				c0.6,16.4,1.1,29.4-2.5,36c-1.4,2.5-4,4-6.8,3.9h-7c-0.6,0-0.9,0.3-0.9,0.5v1.3c0,0.2,0.4,0.5,0.9,0.5h1.2c4-0.2,7.4,2.9,7.6,6.9
				s-2.9,7.4-6.9,7.6c-0.3,0-0.5,0-0.8,0h-13.7c-0.6,0-0.9,0.3-0.9,0.5v0.2c0,0.2,0.4,0.5,0.9,0.5h12c9.7,0,17.6,7.9,17.7,17.7v21.4
				c0.1,1.9-1.3,3.4-3.2,3.5s-3.4-1.3-3.5-3.2c0-0.1,0-0.2,0-0.4V675c0-6.1-4.9-11-11-11l0,0h-12c-4.1,0.1-7.5-3.1-7.6-7.2v-0.2
				c0.1-4.1,3.5-7.4,7.6-7.2h13.6c0.6,0,0.9-0.3,0.9-0.5s-0.4-0.5-0.9-0.5h-1.1c-4.1,0.1-7.5-3.1-7.6-7.2v-1.3
				c0.1-4.1,3.5-7.4,7.6-7.2h7c0.3,0,0.7-0.1,0.9-0.4c2.7-5.1,2.2-18.5,1.7-32.6c-0.5-14.5-1.1-49.4,1.4-62.8c3-16,9.9-27,17.1-30.4
				C956.2,501.6,962.1,503.8,962.1,503.8z"/>
		</g>
		<g id="STAND">
			<path class="st1" d="M782,831.9h63.1c6.5,0,11.8,5.3,11.8,11.8v0v2.6l0,0h-86.6l0,0v-2.6C770.2,837.2,775.4,831.9,782,831.9
				C781.9,831.9,782,831.9,782,831.9z"/>
			<path class="st1" d="M780.4,831.9L780.4,831.9c6.9,0,12.6-5.6,12.6-12.6c0,0,0,0,0,0v-41.2c0-6.9-5.6-12.6-12.6-12.6h66.1
				c-6.9,0-12.6,5.6-12.6,12.6v41.2c0,6.9,5.6,12.6,12.6,12.6L780.4,831.9L780.4,831.9z"/>
			<path class="st1" d="M834,775.7c-0.1-4.4,5.6-10.2,12.6-10.2h-66.1c6.9,0,12.6,5.6,12.6,12.6v9.7L834,775.7z"/>
			<path class="st1" d="M780.4,831.9L780.4,831.9c6.9,0,12.6-5.6,12.6-12.6c0,0,0,0,0,0v-41.2c0-6.9-5.6-12.6-12.6-12.6h66.1
				c-6.9,0-12.6,5.6-12.6,12.6v41.2c0,6.9,5.6,12.6,12.6,12.6L780.4,831.9L780.4,831.9z"/>
			<path class="st1" d="M931.2,765.5H695.8c-9.3-0.1-17.6-6-20.6-14.9l-1.8-5.3h280.3l-1.8,5.3C948.8,759.5,940.6,765.5,931.2,765.5
				z"/>
		</g>
	</g>
	<path class="st0" d="M1483.2,215.7c0,0,39.9,154.2,97.6,262"/>
	<line class="st0" x1="1580.7" y1="309.1" x2="1604.8" y2="474.5"/>
</g>
</svg>
